<svg width="1440" height="1024" viewBox="0 0 1440 1024" fill="none" xmlns="http://www.w3.org/2000/svg">
<rect width="1440" height="1024" fill="white"/>
<path d="M532.48 471.72H544.8L566.32 529H554.4L549.68 515.32H527.6L522.88 529H510.96L532.48 471.72ZM546.16 505.4L541.04 491.08L538.96 484.12H538.32L536.24 491.08L531.12 505.4H546.16ZM573.026 471.72H583.666L601.186 502.04H601.826L619.346 471.72H630.066V529H619.346V500.76L619.986 491.16H619.346L604.786 516.84H598.306L583.666 491.16H583.026L583.666 500.76V529H573.026V471.72ZM656.099 502.36L636.819 471.72H649.699L661.139 490.68H661.779L672.819 471.72H685.859L666.899 502.36V529H656.099V502.36ZM706.935 518.12L735.975 481.96H708.215V471.72H748.535V482.6L719.815 518.76H748.855V529H706.935V518.12ZM757.791 471.72H768.591V494.6H792.671V471.72H803.471V529H792.671V504.84H768.591V529H757.791V471.72ZM831.699 471.72H844.019L865.539 529H853.619L848.899 515.32H826.819L822.099 529H810.179L831.699 471.72ZM845.379 505.4L840.259 491.08L838.179 484.12H837.539L835.459 491.08L830.339 505.4H845.379ZM897.802 530.28C893.535 530.28 889.562 529.507 885.882 527.96C882.255 526.413 879.109 524.307 876.442 521.64C873.775 518.92 871.669 515.747 870.122 512.12C868.629 508.44 867.882 504.52 867.882 500.36C867.882 496.2 868.629 492.307 870.122 488.68C871.669 485 873.775 481.827 876.442 479.16C879.109 476.44 882.255 474.307 885.882 472.76C889.562 471.213 893.535 470.44 897.802 470.44C902.069 470.44 906.015 471.213 909.642 472.76C913.322 474.307 916.495 476.44 919.162 479.16C921.829 481.827 923.909 485 925.402 488.68C926.949 492.307 927.722 496.2 927.722 500.36C927.722 504.52 926.949 508.44 925.402 512.12C923.909 515.747 921.829 518.92 919.162 521.64C916.495 524.307 913.322 526.413 909.642 527.96C906.015 529.507 902.069 530.28 897.802 530.28ZM897.802 520.04C900.469 520.04 902.949 519.56 905.242 518.6C907.589 517.64 909.615 516.307 911.322 514.6C913.082 512.893 914.442 510.84 915.402 508.44C916.415 505.987 916.922 503.293 916.922 500.36C916.922 497.427 916.415 494.76 915.402 492.36C914.442 489.907 913.082 487.827 911.322 486.12C909.615 484.413 907.589 483.08 905.242 482.12C902.949 481.16 900.469 480.68 897.802 480.68C895.135 480.68 892.629 481.16 890.282 482.12C887.989 483.08 885.962 484.413 884.202 486.12C882.495 487.827 881.135 489.907 880.122 492.36C879.162 494.76 878.682 497.427 878.682 500.36C878.682 503.293 879.162 505.987 880.122 508.44C881.135 510.84 882.495 512.893 884.202 514.6C885.962 516.307 887.989 517.64 890.282 518.6C892.629 519.56 895.135 520.04 897.802 520.04Z" fill="#78CDEB"/>
<path d="M635.12 431H627.76V373.72H635.12V398.28H663.76V373.72H671.12V431H663.76V405.16H635.12V431ZM689.964 431H682.604V373.72H689.964V431ZM726.448 431H719.088V373.72H726.448V431ZM739.514 391.16L736.074 388.92L740.074 382.84C738.954 382.627 737.994 382.067 737.194 381.16C736.448 380.253 736.074 379.16 736.074 377.88C736.074 376.333 736.608 375.053 737.674 374.04C738.741 372.973 740.021 372.44 741.514 372.44C743.061 372.44 744.341 372.973 745.354 374.04C746.421 375.053 746.954 376.333 746.954 377.88C746.954 379.373 746.394 381 745.274 382.76L739.514 391.16ZM763.948 431H756.588V373.72H763.948L783.868 408.6H784.188L804.108 373.72H811.468V431H804.108V397L804.428 387.4H804.108L786.188 418.84H781.868L763.948 387.4H763.628L763.948 397V431Z" fill="black"/>
<path d="M478.5 620.2H483.3L473.75 656H469.05L461.35 632.4H461.15L453.45 656H448.75L438.8 620.2H443.6L451.15 648.35H451.35L459.1 625H463.4L471.15 648.35H471.35L478.5 620.2ZM508.594 620.2V624.6H492.294V635.95H506.994V640.25H492.294V651.6H508.594V656H487.694V620.2H508.594ZM514.793 656V620.2H527.743C530.577 620.2 533.01 621.133 535.043 623C537.077 624.833 538.093 627.15 538.093 629.95C538.093 633.483 536.477 635.967 533.243 637.4V637.6C535.077 638.2 536.543 639.25 537.643 640.75C538.743 642.217 539.293 643.9 539.293 645.8C539.293 648.733 538.227 651.167 536.093 653.1C534.027 655.033 531.477 656 528.443 656H514.793ZM519.393 624.6V635.55H527.743C529.377 635.55 530.743 635 531.843 633.9C532.943 632.767 533.493 631.483 533.493 630.05C533.493 628.65 532.96 627.383 531.893 626.25C530.827 625.15 529.51 624.6 527.943 624.6H519.393ZM519.393 639.85V651.6H528.643C530.31 651.6 531.727 651.017 532.893 649.85C534.027 648.683 534.593 647.3 534.593 645.7C534.593 644.133 534.01 642.767 532.843 641.6C531.677 640.433 530.21 639.85 528.443 639.85H519.393ZM566.581 646.45C566.581 649.583 565.431 652.1 563.131 654C560.798 655.867 557.964 656.8 554.631 656.8C551.664 656.8 549.048 655.933 546.781 654.2C544.514 652.467 542.948 650.1 542.081 647.1L546.481 645.3C546.781 646.367 547.198 647.333 547.731 648.2C548.264 649.067 548.881 649.817 549.581 650.45C550.314 651.05 551.114 651.533 551.981 651.9C552.848 652.233 553.764 652.4 554.731 652.4C556.831 652.4 558.548 651.867 559.881 650.8C561.214 649.7 561.881 648.25 561.881 646.45C561.881 644.95 561.331 643.667 560.231 642.6C559.198 641.567 557.264 640.567 554.431 639.6C551.564 638.567 549.781 637.867 549.081 637.5C545.281 635.567 543.381 632.717 543.381 628.95C543.381 626.317 544.431 624.067 546.531 622.2C548.664 620.333 551.281 619.4 554.381 619.4C557.114 619.4 559.481 620.1 561.481 621.5C563.481 622.867 564.814 624.583 565.481 626.65L561.181 628.45C560.781 627.117 559.981 626.017 558.781 625.15C557.614 624.25 556.181 623.8 554.481 623.8C552.681 623.8 551.164 624.3 549.931 625.3C548.698 626.233 548.081 627.45 548.081 628.95C548.081 630.183 548.564 631.25 549.531 632.15C550.598 633.05 552.914 634.117 556.481 635.35C560.114 636.583 562.698 638.1 564.231 639.9C565.798 641.667 566.581 643.85 566.581 646.45ZM576.718 656H572.118V620.2H576.718V656ZM596.134 624.6V656H591.534V624.6H581.534V620.2H606.134V624.6H596.134ZM631.836 620.2V624.6H615.536V635.95H630.236V640.25H615.536V651.6H631.836V656H610.936V620.2H631.836ZM664.895 656.8C659.595 656.8 655.162 655.017 651.595 651.45C648.062 647.883 646.295 643.433 646.295 638.1C646.295 632.767 648.062 628.333 651.595 624.8C655.129 621.2 659.562 619.4 664.895 619.4C670.295 619.4 674.679 621.35 678.045 625.25L674.745 628.45C672.179 625.35 668.895 623.8 664.895 623.8C660.929 623.8 657.612 625.133 654.945 627.8C652.312 630.433 650.995 633.867 650.995 638.1C650.995 642.333 652.312 645.767 654.945 648.4C657.612 651.067 660.929 652.4 664.895 652.4C669.062 652.4 672.679 650.65 675.745 647.15L679.095 650.4C677.395 652.433 675.312 654.017 672.845 655.15C670.379 656.25 667.729 656.8 664.895 656.8ZM719.033 638.1C719.033 643.4 717.266 647.833 713.733 651.4C710.166 655 705.799 656.8 700.633 656.8C695.433 656.8 691.066 655 687.533 651.4C683.999 647.833 682.233 643.4 682.233 638.1C682.233 632.8 683.999 628.367 687.533 624.8C691.066 621.2 695.433 619.4 700.633 619.4C705.833 619.4 710.199 621.217 713.733 624.85C717.266 628.417 719.033 632.833 719.033 638.1ZM686.933 638.1C686.933 642.233 688.233 645.65 690.833 648.35C693.466 651.05 696.733 652.4 700.633 652.4C704.533 652.4 707.783 651.05 710.383 648.35C713.016 645.683 714.333 642.267 714.333 638.1C714.333 633.933 713.016 630.517 710.383 627.85C707.783 625.15 704.533 623.8 700.633 623.8C696.733 623.8 693.466 625.15 690.833 627.85C688.233 630.55 686.933 633.967 686.933 638.1ZM729.061 656H724.461V620.2H729.061L741.511 642H741.711L754.161 620.2H758.761V656H754.161V634.75L754.361 628.75H754.161L742.961 648.4H740.261L729.061 628.75H728.861L729.061 634.75V656ZM770.565 656H765.965V620.2H770.565V656ZM782.382 656H777.782V620.2H783.382L800.782 648.05H800.982L800.782 641.15V620.2H805.382V656H800.582L782.382 626.8H782.182L782.382 633.7V656ZM846.558 639.55C846.558 644.55 845.074 648.533 842.108 651.5C838.774 655.033 834.391 656.8 828.958 656.8C823.758 656.8 819.358 655 815.758 651.4C812.158 647.8 810.358 643.367 810.358 638.1C810.358 632.833 812.158 628.4 815.758 624.8C819.358 621.2 823.758 619.4 828.958 619.4C831.591 619.4 834.074 619.867 836.408 620.8C838.741 621.733 840.658 623.05 842.158 624.75L838.858 628.05C837.758 626.717 836.324 625.683 834.558 624.95C832.824 624.183 830.958 623.8 828.958 623.8C825.058 623.8 821.758 625.15 819.058 627.85C816.391 630.583 815.058 634 815.058 638.1C815.058 642.2 816.391 645.617 819.058 648.35C821.758 651.05 825.058 652.4 828.958 652.4C832.524 652.4 835.491 651.4 837.858 649.4C840.224 647.4 841.591 644.65 841.958 641.15H828.958V636.85H846.308C846.474 637.783 846.558 638.683 846.558 639.55ZM883.72 646.45C883.72 649.583 882.57 652.1 880.27 654C877.936 655.867 875.103 656.8 871.77 656.8C868.803 656.8 866.186 655.933 863.92 654.2C861.653 652.467 860.086 650.1 859.22 647.1L863.62 645.3C863.92 646.367 864.336 647.333 864.87 648.2C865.403 649.067 866.02 649.817 866.72 650.45C867.453 651.05 868.253 651.533 869.12 651.9C869.986 652.233 870.903 652.4 871.87 652.4C873.97 652.4 875.686 651.867 877.02 650.8C878.353 649.7 879.02 648.25 879.02 646.45C879.02 644.95 878.47 643.667 877.37 642.6C876.336 641.567 874.403 640.567 871.57 639.6C868.703 638.567 866.92 637.867 866.22 637.5C862.42 635.567 860.52 632.717 860.52 628.95C860.52 626.317 861.57 624.067 863.67 622.2C865.803 620.333 868.42 619.4 871.52 619.4C874.253 619.4 876.62 620.1 878.62 621.5C880.62 622.867 881.953 624.583 882.62 626.65L878.32 628.45C877.92 627.117 877.12 626.017 875.92 625.15C874.753 624.25 873.32 623.8 871.62 623.8C869.82 623.8 868.303 624.3 867.07 625.3C865.836 626.233 865.22 627.45 865.22 628.95C865.22 630.183 865.703 631.25 866.67 632.15C867.736 633.05 870.053 634.117 873.62 635.35C877.253 636.583 879.836 638.1 881.37 639.9C882.936 641.667 883.72 643.85 883.72 646.45ZM924.306 638.1C924.306 643.4 922.54 647.833 919.006 651.4C915.44 655 911.073 656.8 905.906 656.8C900.706 656.8 896.34 655 892.806 651.4C889.273 647.833 887.506 643.4 887.506 638.1C887.506 632.8 889.273 628.367 892.806 624.8C896.34 621.2 900.706 619.4 905.906 619.4C911.106 619.4 915.473 621.217 919.006 624.85C922.54 628.417 924.306 632.833 924.306 638.1ZM892.206 638.1C892.206 642.233 893.506 645.65 896.106 648.35C898.74 651.05 902.006 652.4 905.906 652.4C909.806 652.4 913.056 651.05 915.656 648.35C918.29 645.683 919.606 642.267 919.606 638.1C919.606 633.933 918.29 630.517 915.656 627.85C913.056 625.15 909.806 623.8 905.906 623.8C902.006 623.8 898.74 625.15 896.106 627.85C893.506 630.55 892.206 633.967 892.206 638.1ZM964.296 638.1C964.296 643.4 962.53 647.833 958.996 651.4C955.43 655 951.063 656.8 945.896 656.8C940.696 656.8 936.33 655 932.796 651.4C929.263 647.833 927.496 643.4 927.496 638.1C927.496 632.8 929.263 628.367 932.796 624.8C936.33 621.2 940.696 619.4 945.896 619.4C951.096 619.4 955.463 621.217 958.996 624.85C962.53 628.417 964.296 632.833 964.296 638.1ZM932.196 638.1C932.196 642.233 933.496 645.65 936.096 648.35C938.73 651.05 941.996 652.4 945.896 652.4C949.796 652.4 953.046 651.05 955.646 648.35C958.28 645.683 959.596 642.267 959.596 638.1C959.596 633.933 958.28 630.517 955.646 627.85C953.046 625.15 949.796 623.8 945.896 623.8C941.996 623.8 938.73 625.15 936.096 627.85C933.496 630.55 932.196 633.967 932.196 638.1ZM974.325 656H969.725V620.2H975.325L992.725 648.05H992.925L992.725 641.15V620.2H997.325V656H992.525L974.325 626.8H974.125L974.325 633.7V656Z" fill="black"/>
</svg>
