<svg width="422" height="299" viewBox="0 0 422 299" fill="none" xmlns="http://www.w3.org/2000/svg">
<g clip-path="url(#clip0)">
<path opacity="0.1" d="M204.194 290.656C316.967 290.656 408.387 286.129 408.387 280.544C408.387 274.959 316.967 270.432 204.194 270.432C91.4206 270.432 0 274.959 0 280.544C0 286.129 91.4206 290.656 204.194 290.656Z" fill="#78CDEB"/>
<g opacity="0.2">
<path opacity="0.2" d="M366.712 248.22C366.541 248.541 366.341 248.846 366.115 249.132C364.134 247.747 362.114 246.393 360.053 245.071C360.093 244.984 360.137 244.897 360.185 244.81C360.66 243.898 361.372 243.129 362.247 242.581C363.38 241.891 364.65 241.736 365.711 242.288C366.772 242.839 367.352 243.977 367.412 245.286C367.448 246.308 367.206 247.322 366.712 248.22Z" fill="#3F3D56"/>
<path opacity="0.2" d="M369.491 243.073C370.741 240.737 370.293 238.077 368.491 237.131C366.69 236.186 364.216 237.314 362.967 239.65C361.718 241.986 362.165 244.646 363.967 245.591C365.769 246.536 368.242 245.409 369.491 243.073Z" fill="#3F3D56"/>
<path opacity="0.2" d="M372.258 237.898C373.508 235.561 373.06 232.902 371.258 231.956C369.457 231.011 366.983 232.139 365.734 234.475C364.485 236.811 364.933 239.471 366.734 240.416C368.536 241.361 371.009 240.234 372.258 237.898Z" fill="#3F3D56"/>
<path opacity="0.2" d="M375.024 232.73C376.273 230.394 375.825 227.734 374.024 226.789C372.222 225.843 369.749 226.971 368.499 229.307C367.25 231.643 367.698 234.303 369.499 235.248C371.301 236.193 373.774 235.066 375.024 232.73Z" fill="#3F3D56"/>
<path opacity="0.2" d="M377.791 227.555C379.04 225.219 378.592 222.559 376.791 221.613C374.989 220.668 372.516 221.796 371.267 224.132C370.017 226.468 370.465 229.128 372.267 230.073C374.068 231.018 376.541 229.891 377.791 227.555Z" fill="#3F3D56"/>
<path opacity="0.2" d="M381.217 184.001C381.074 183.205 380.984 182.401 380.949 181.594L390.274 184.695L380.961 179.9C381.096 177.516 381.72 175.184 382.797 173.048C383.874 170.912 385.38 169.015 387.223 167.476L396.248 180.396L389.241 166.021C391.3 164.748 393.601 163.909 396.001 163.555C398.401 163.202 400.85 163.341 403.193 163.964C405.537 164.588 407.726 165.682 409.624 167.179C411.523 168.677 413.089 170.545 414.228 172.668C415.366 174.791 416.051 177.123 416.24 179.519C416.429 181.915 416.118 184.324 415.327 186.597C414.536 188.869 413.281 190.956 411.641 192.727C410.001 194.498 408.01 195.916 405.793 196.893C406.022 198.133 406.113 199.393 406.065 200.652L391.871 200.541L405.853 202.822C405.541 204.709 404.922 206.533 404.019 208.223C402.174 211.699 399.199 214.457 395.575 216.051C396.169 219.287 395.831 222.623 394.6 225.678C393.37 228.733 391.296 231.383 388.617 233.326C385.937 235.268 382.76 236.425 379.448 236.663C376.136 236.901 372.823 236.211 369.888 234.671C366.953 233.132 364.515 230.806 362.852 227.959C361.19 225.112 360.369 221.859 360.485 218.572C360.601 215.285 361.649 212.097 363.508 209.372C365.368 206.647 367.964 204.495 371 203.163C370.287 199.297 370.908 195.306 372.761 191.83C374.614 188.355 377.592 185.598 381.217 184.001Z" fill="#78CDEB"/>
<path opacity="0.1" d="M404.019 208.235C402.172 211.707 399.197 214.46 395.575 216.051C396.169 219.287 395.831 222.623 394.601 225.678C393.37 228.733 391.296 231.383 388.617 233.326C385.937 235.268 382.76 236.425 379.448 236.663C376.136 236.9 372.823 236.211 369.888 234.671C366.953 233.132 364.515 230.806 362.852 227.959C361.19 225.112 360.369 221.859 360.485 218.572C360.601 215.285 361.649 212.097 363.508 209.372C365.368 206.647 367.964 204.495 371 203.163C370.295 199.427 404.948 206.494 404.019 208.235Z" fill="black"/>
</g>
<g opacity="0.2">
<path opacity="0.2" d="M355.625 144.864C355.413 145.413 355.154 145.944 354.852 146.45C351.382 144.616 347.862 142.831 344.29 141.097C344.342 140.95 344.394 140.799 344.45 140.649C345.034 139.098 346.023 137.73 347.317 136.683C348.999 135.351 351.021 134.847 352.822 135.525C354.624 136.203 355.797 137.904 356.162 140.006C356.422 141.644 356.237 143.321 355.625 144.864Z" fill="#3F3D56"/>
<path opacity="0.2" d="M359.878 138.47C361.434 134.488 360.207 130.306 357.137 129.128C354.066 127.951 350.316 130.225 348.76 134.207C347.203 138.189 348.431 142.371 351.501 143.549C354.571 144.726 358.322 142.452 359.878 138.47Z" fill="#3F3D56"/>
<path opacity="0.2" d="M362.444 127.166C363.982 123.165 362.728 118.978 359.642 117.814C356.557 116.651 352.809 118.952 351.271 122.954C349.733 126.955 350.988 131.142 354.073 132.305C357.158 133.469 360.906 131.168 362.444 127.166Z" fill="#3F3D56"/>
<path opacity="0.2" d="M365.845 118.312C367.383 114.31 366.129 110.123 363.044 108.96C359.958 107.797 356.21 110.098 354.672 114.099C353.134 118.101 354.389 122.288 357.474 123.451C360.56 124.614 364.307 122.313 365.845 118.312Z" fill="#3F3D56"/>
<path opacity="0.2" d="M369.251 109.453C370.789 105.452 369.534 101.265 366.449 100.101C363.363 98.9381 359.615 101.239 358.077 105.241C356.539 109.242 357.794 113.429 360.879 114.593C363.965 115.756 367.713 113.455 369.251 109.453Z" fill="#3F3D56"/>
<path opacity="0.2" d="M366.019 38.8592C365.624 37.6088 365.318 36.3327 365.102 35.0403L380.717 38.189L364.794 32.3199C364.528 28.4593 365.061 24.5857 366.361 20.9366C367.661 17.2876 369.7 13.9402 372.353 11.0998L389.449 30.0793L375.3 8.36751C378.353 5.92433 381.882 4.12905 385.665 3.09315C389.449 2.05725 393.407 1.80285 397.294 2.34575C401.182 2.88866 404.915 4.21726 408.261 6.24908C411.608 8.28089 414.498 10.9725 416.75 14.1568C419.003 17.3411 420.571 20.9501 421.356 24.7597C422.141 28.5692 422.127 32.498 421.315 36.302C420.503 40.106 418.91 43.7041 416.635 46.8728C414.36 50.0414 411.452 52.713 408.091 54.7217C408.706 56.668 409.109 58.6742 409.292 60.7058L386.47 63.3271L409.388 64.2352C409.211 68.951 407.849 73.5485 405.425 77.6112C403.001 81.6739 399.592 85.0733 395.507 87.5015C397.108 92.5818 397.234 98.0059 395.87 103.154C394.506 108.302 391.707 112.965 387.793 116.612C383.879 120.259 379.009 122.741 373.738 123.775C368.467 124.81 363.008 124.354 357.987 122.461C352.965 120.568 348.582 117.313 345.339 113.069C342.097 108.825 340.125 103.763 339.65 98.4621C339.175 93.1608 340.215 87.834 342.652 83.0907C345.089 78.3474 348.824 74.379 353.431 71.639C351.517 65.5684 351.717 59.0366 353.999 53.0922C356.282 47.1477 360.515 42.1352 366.019 38.8592Z" fill="#78CDEB"/>
<path opacity="0.1" d="M407.522 73.2649C405.25 79.2119 401.018 84.2253 395.511 87.4936C397.112 92.5739 397.238 97.9979 395.874 103.146C394.51 108.294 391.711 112.957 387.797 116.604C383.883 120.251 379.013 122.733 373.742 123.767C368.471 124.802 363.012 124.346 357.991 122.453C352.969 120.56 348.586 117.305 345.343 113.061C342.101 108.817 340.129 103.755 339.654 98.4541C339.179 93.1528 340.219 87.826 342.656 83.0827C345.093 78.3394 348.828 74.371 353.435 71.6311C351.565 65.7699 408.663 70.2867 407.522 73.2649Z" fill="black"/>
</g>
<g opacity="0.2">
<path opacity="0.2" d="M80.7606 174.325C80.9299 175.003 81.1562 175.667 81.4372 176.308C85.8094 174.645 90.2296 173.058 94.6978 171.549C94.6577 171.37 94.6177 171.18 94.5737 170.998C94.1151 169.075 93.1477 167.308 91.771 165.878C89.9853 164.058 87.6711 163.169 85.445 163.709C83.2189 164.248 81.5774 166.088 80.8407 168.511C80.2914 170.407 80.2637 172.414 80.7606 174.325Z" fill="#3F3D56"/>
<path opacity="0.2" d="M87.193 170.652C91.0081 169.729 93.1124 164.971 91.893 160.024C90.6736 155.078 86.5924 151.815 82.7773 152.738C78.9622 153.66 76.858 158.419 78.0773 163.365C79.2967 168.312 83.3779 171.574 87.193 170.652Z" fill="#3F3D56"/>
<path opacity="0.2" d="M84.492 159.701C88.3071 158.779 90.4114 154.021 89.192 149.074C87.9726 144.127 83.8914 140.865 80.0763 141.787C76.2612 142.71 74.1569 147.468 75.3763 152.415C76.5957 157.362 80.6769 160.624 84.492 159.701Z" fill="#3F3D56"/>
<path opacity="0.2" d="M81.7919 148.759C85.607 147.836 87.7112 143.078 86.4919 138.131C85.2725 133.184 81.1913 129.922 77.3762 130.845C73.5611 131.767 71.4568 136.525 72.6762 141.472C73.8955 146.419 77.9768 149.681 81.7919 148.759Z" fill="#3F3D56"/>
<path opacity="0.2" d="M79.0997 137.815C82.9148 136.893 85.0191 132.134 83.7997 127.188C82.5803 122.241 78.4991 118.979 74.684 119.901C70.8689 120.824 68.7647 125.582 69.984 130.529C71.2034 135.475 75.2846 138.738 79.0997 137.815Z" fill="#3F3D56"/>
<path opacity="0.2" d="M84.2759 47.7099C84.9281 46.2959 85.4793 44.8382 85.9254 43.3477L67.0516 44.7833L86.7142 40.1832C87.5971 35.6703 87.5411 31.0264 86.5498 26.5357C85.5585 22.0449 83.6526 17.8017 80.9487 14.0656L57.9469 33.9611L77.8778 10.4093C74.647 7.05269 70.7521 4.39202 66.4364 2.59346C62.1207 0.7949 57.4769 -0.102913 52.7951 -0.0438994C48.1133 0.0151142 43.494 1.02969 39.2259 2.93645C34.9578 4.84321 31.1325 7.60119 27.989 11.0381C24.8455 14.475 22.4512 18.5171 20.9558 22.9117C19.4604 27.3064 18.896 31.9592 19.2978 36.5797C19.6996 41.2001 21.059 45.6888 23.2911 49.7655C25.5232 53.8421 28.58 57.4191 32.2706 60.273C31.2554 62.4805 30.4836 64.7899 29.9684 67.1613L56.5136 73.5896L29.3358 71.3093C28.8447 76.9004 29.7689 82.5245 32.0249 87.6727C34.2809 92.8208 37.7973 97.3306 42.2561 100.794C39.6066 106.555 38.6475 112.938 39.4884 119.214C40.3293 125.49 42.9362 131.404 47.0112 136.281C51.0861 141.159 56.4645 144.802 62.5314 146.794C68.5983 148.786 75.1088 149.047 81.3184 147.547C87.528 146.047 93.186 142.846 97.6456 138.311C102.105 133.776 105.186 128.09 106.536 121.902C107.887 115.714 107.451 109.275 105.281 103.32C103.11 97.3659 99.2913 92.1367 94.2614 88.2306C97.426 81.3458 98.1619 73.6071 96.3509 66.2581C94.5399 58.9091 90.2871 52.3764 84.2759 47.7099Z" fill="#78CDEB"/>
<path opacity="0.1" d="M30.1806 82.2549C31.9815 89.6092 36.2364 96.1458 42.256 100.806C39.6083 106.568 38.651 112.951 39.4936 119.227C40.3362 125.502 42.9446 131.416 47.0207 136.292C51.0967 141.168 56.4758 144.809 62.543 146.8C68.6102 148.791 75.1205 149.05 81.3296 147.549C87.5387 146.048 93.1959 142.846 97.6544 138.31C102.113 133.774 105.193 128.087 106.542 121.899C107.891 115.711 107.454 109.272 105.283 103.319C103.111 97.3647 99.2918 92.1363 94.2613 88.2311C97.3242 81.5847 29.2757 78.5788 30.1806 82.2549Z" fill="black"/>
</g>
<path d="M383.628 38.8591H49.4229C48.6325 38.8612 47.8752 39.174 47.3174 39.7287C46.7597 40.2833 46.447 41.0346 46.448 41.8175V244.401C46.4454 245.184 46.5988 245.96 46.8994 246.684C47.2001 247.408 47.642 248.066 48.2 248.62C48.7579 249.175 49.4209 249.615 50.1508 249.915C50.8808 250.215 51.6634 250.37 52.4537 250.37H380.609C381.399 250.37 382.182 250.215 382.912 249.915C383.642 249.615 384.305 249.175 384.863 248.62C385.42 248.066 385.862 247.408 386.163 246.684C386.464 245.96 386.617 245.184 386.614 244.401V41.8135C386.614 41.4252 386.537 41.0407 386.387 40.682C386.237 40.3233 386.017 39.9974 385.739 39.723C385.462 39.4487 385.133 39.2311 384.77 39.0829C384.408 38.9346 384.02 38.8586 383.628 38.8591Z" fill="url(#paint0_linear)"/>
<path d="M385.253 51.4341V243.208C385.253 244.772 384.626 246.272 383.51 247.379C382.393 248.485 380.879 249.107 379.3 249.108H53.811C52.2316 249.107 50.7173 248.485 49.6009 247.379C48.4845 246.272 47.8574 244.772 47.8574 243.208V51.4341H385.253Z" fill="white"/>
<path d="M385.253 42.912V51.4341H47.8574V42.912C47.8568 42.5278 47.9328 42.1474 48.0808 41.7923C48.2289 41.4373 48.4462 41.1146 48.7202 40.8428C48.9943 40.571 49.3197 40.3553 49.678 40.2082C50.0363 40.0611 50.4203 39.9854 50.8082 39.9854H382.322C383.102 39.9906 383.848 40.3014 384.397 40.8498C384.947 41.3982 385.254 42.1396 385.253 42.912Z" fill="#EDEDF4"/>
<path opacity="0.8" d="M53.2024 46.9926C53.9653 46.9926 54.5837 46.3801 54.5837 45.6245C54.5837 44.8689 53.9653 44.2563 53.2024 44.2563C52.4395 44.2563 51.8211 44.8689 51.8211 45.6245C51.8211 46.3801 52.4395 46.9926 53.2024 46.9926Z" fill="#FA5959"/>
<path opacity="0.8" d="M56.998 46.9926C57.7609 46.9926 58.3793 46.3801 58.3793 45.6245C58.3793 44.8689 57.7609 44.2563 56.998 44.2563C56.2352 44.2563 55.6167 44.8689 55.6167 45.6245C55.6167 46.3801 56.2352 46.9926 56.998 46.9926Z" fill="#FED253"/>
<path opacity="0.8" d="M60.7936 46.9926C61.5565 46.9926 62.1749 46.3801 62.1749 45.6245C62.1749 44.8689 61.5565 44.2563 60.7936 44.2563C60.0308 44.2563 59.4123 44.8689 59.4123 45.6245C59.4123 46.3801 60.0308 46.9926 60.7936 46.9926Z" fill="#8CCF4D"/>
<path d="M236.188 35.0997V33.7316H234.118V35.0997H236.188Z" fill="url(#paint1_linear)"/>
<path d="M157.882 68.2444H125.451V71.6628H157.882V68.2444Z" fill="#EDEDF4"/>
<path d="M307.604 78.1505H125.451V81.5689H307.604V78.1505Z" fill="#EDEDF4"/>
<path d="M307.604 88.0605H125.451V91.4789H307.604V88.0605Z" fill="#EDEDF4"/>
<path d="M307.604 97.9707H125.451V101.389H307.604V97.9707Z" fill="#EDEDF4"/>
<path d="M307.604 107.881H125.451V111.299H307.604V107.881Z" fill="#EDEDF4"/>
<path d="M272.703 126.781H160.236V212.891H272.703V126.781Z" fill="#EDEDF4"/>
<path d="M362.584 299C368.525 299 373.342 298.082 373.342 296.95C373.342 295.817 368.525 294.9 362.584 294.9C356.642 294.9 351.825 295.817 351.825 296.95C351.825 298.082 356.642 299 362.584 299Z" fill="#78CDEB"/>
<path d="M362.404 297.703C363.096 297.703 363.657 296.977 363.657 296.081C363.657 295.186 363.096 294.459 362.404 294.459C361.711 294.459 361.15 295.186 361.15 296.081C361.15 296.977 361.711 297.703 362.404 297.703Z" fill="#3F3D56"/>
<path d="M362.404 295.717C363.096 295.717 363.657 294.99 363.657 294.095C363.657 293.199 363.096 292.473 362.404 292.473C361.711 292.473 361.15 293.199 361.15 294.095C361.15 294.99 361.711 295.717 362.404 295.717Z" fill="#3F3D56"/>
<path d="M362.404 293.734C363.096 293.734 363.657 293.007 363.657 292.112C363.657 291.216 363.096 290.49 362.404 290.49C361.711 290.49 361.15 291.216 361.15 292.112C361.15 293.007 361.711 293.734 362.404 293.734Z" fill="#3F3D56"/>
<path d="M362.404 291.747C363.096 291.747 363.657 291.021 363.657 290.125C363.657 289.229 363.096 288.503 362.404 288.503C361.711 288.503 361.15 289.229 361.15 290.125C361.15 291.021 361.711 291.747 362.404 291.747Z" fill="#3F3D56"/>
<path d="M362.404 289.764C363.096 289.764 363.657 289.038 363.657 288.142C363.657 287.246 363.096 286.52 362.404 286.52C361.711 286.52 361.15 287.246 361.15 288.142C361.15 289.038 361.711 289.764 362.404 289.764Z" fill="#3F3D56"/>
<path d="M362.404 287.781C363.096 287.781 363.657 287.055 363.657 286.159C363.657 285.263 363.096 284.537 362.404 284.537C361.711 284.537 361.15 285.263 361.15 286.159C361.15 287.055 361.711 287.781 362.404 287.781Z" fill="#3F3D56"/>
<path d="M362.404 285.794C363.096 285.794 363.657 285.068 363.657 284.172C363.657 283.277 363.096 282.551 362.404 282.551C361.711 282.551 361.15 283.277 361.15 284.172C361.15 285.068 361.711 285.794 362.404 285.794Z" fill="#3F3D56"/>
<path d="M367.092 270.59C367.263 270.376 367.418 270.149 367.556 269.912L364.269 269.377L367.825 269.401C368.168 268.666 368.356 267.869 368.375 267.059C368.395 266.249 368.248 265.444 367.941 264.693L363.164 267.148L367.568 263.94C367.163 263.22 366.61 262.592 365.946 262.095C365.282 261.598 364.521 261.243 363.711 261.052C362.901 260.862 362.06 260.841 361.241 260.989C360.423 261.138 359.644 261.454 358.955 261.916C358.266 262.379 357.682 262.978 357.239 263.677C356.796 264.375 356.505 265.156 356.384 265.972C356.262 266.788 356.313 267.619 356.533 268.414C356.754 269.209 357.138 269.95 357.663 270.59C357.395 270.925 357.165 271.288 356.978 271.673L361.25 273.874L356.694 272.359C356.375 273.295 356.296 274.296 356.465 275.27C356.635 276.244 357.046 277.161 357.663 277.939C356.964 278.815 356.529 279.87 356.407 280.98C356.285 282.091 356.481 283.213 356.973 284.218C357.465 285.223 358.233 286.071 359.189 286.664C360.145 287.257 361.25 287.572 362.378 287.572C363.505 287.572 364.61 287.257 365.566 286.664C366.522 286.071 367.29 285.223 367.782 284.218C368.274 283.213 368.47 282.091 368.348 280.98C368.226 279.87 367.791 278.815 367.092 277.939C367.923 276.891 368.375 275.597 368.375 274.264C368.375 272.932 367.923 271.638 367.092 270.59Z" fill="#78CDEB"/>
<path opacity="0.1" d="M356.378 274.262C356.376 275.596 356.829 276.892 357.663 277.939C356.964 278.815 356.529 279.87 356.407 280.98C356.285 282.091 356.481 283.213 356.973 284.218C357.465 285.223 358.233 286.071 359.189 286.664C360.145 287.257 361.25 287.572 362.378 287.572C363.505 287.572 364.61 287.257 365.566 286.664C366.522 286.071 367.29 285.223 367.782 284.218C368.274 283.213 368.47 282.091 368.348 280.98C368.226 279.87 367.791 278.815 367.092 277.939C367.897 276.927 356.378 273.596 356.378 274.262Z" fill="black"/>
<path d="M30.8212 271.399C33.5101 271.399 35.6898 270.984 35.6898 270.471C35.6898 269.959 33.5101 269.543 30.8212 269.543C28.1324 269.543 25.9526 269.959 25.9526 270.471C25.9526 270.984 28.1324 271.399 30.8212 271.399Z" fill="#78CDEB"/>
<path d="M30.7371 270.812C31.0511 270.812 31.3057 270.484 31.3057 270.079C31.3057 269.674 31.0511 269.345 30.7371 269.345C30.4231 269.345 30.1686 269.674 30.1686 270.079C30.1686 270.484 30.4231 270.812 30.7371 270.812Z" fill="#3F3D56"/>
<path d="M30.7371 269.912C31.0511 269.912 31.3057 269.584 31.3057 269.178C31.3057 268.773 31.0511 268.445 30.7371 268.445C30.4231 268.445 30.1686 268.773 30.1686 269.178C30.1686 269.584 30.4231 269.912 30.7371 269.912Z" fill="#3F3D56"/>
<path d="M30.7371 269.016C31.0511 269.016 31.3057 268.688 31.3057 268.282C31.3057 267.877 31.0511 267.549 30.7371 267.549C30.4231 267.549 30.1686 267.877 30.1686 268.282C30.1686 268.688 30.4231 269.016 30.7371 269.016Z" fill="#3F3D56"/>
<path d="M30.7371 268.116C31.0511 268.116 31.3057 267.787 31.3057 267.382C31.3057 266.977 31.0511 266.648 30.7371 266.648C30.4231 266.648 30.1686 266.977 30.1686 267.382C30.1686 267.787 30.4231 268.116 30.7371 268.116Z" fill="#3F3D56"/>
<path d="M30.7371 267.219C31.0511 267.219 31.3057 266.891 31.3057 266.486C31.3057 266.081 31.0511 265.752 30.7371 265.752C30.4231 265.752 30.1686 266.081 30.1686 266.486C30.1686 266.891 30.4231 267.219 30.7371 267.219Z" fill="#3F3D56"/>
<path d="M30.7371 266.319C31.0511 266.319 31.3057 265.991 31.3057 265.586C31.3057 265.181 31.0511 264.852 30.7371 264.852C30.4231 264.852 30.1686 265.181 30.1686 265.586C30.1686 265.991 30.4231 266.319 30.7371 266.319Z" fill="#3F3D56"/>
<path d="M30.7371 265.419C31.0511 265.419 31.3057 265.091 31.3057 264.686C31.3057 264.28 31.0511 263.952 30.7371 263.952C30.4231 263.952 30.1686 264.28 30.1686 264.686C30.1686 265.091 30.4231 265.419 30.7371 265.419Z" fill="#3F3D56"/>
<path d="M32.8592 258.555C32.938 258.459 33.009 258.356 33.0714 258.249L31.5819 258.003H33.1835C33.3377 257.671 33.4218 257.31 33.4308 256.944C33.4397 256.578 33.3733 256.214 33.2355 255.874L31.0735 256.984L33.0754 255.533C32.8879 255.215 32.6364 254.938 32.3366 254.721C32.0368 254.503 31.695 254.348 31.3324 254.267C30.9699 254.185 30.5942 254.178 30.2289 254.246C29.8635 254.315 29.5161 254.456 29.2083 254.663C28.9005 254.869 28.6389 255.137 28.4396 255.447C28.2403 255.758 28.1076 256.106 28.0497 256.47C27.9918 256.834 28.01 257.206 28.1032 257.562C28.1963 257.919 28.3624 258.252 28.5911 258.543C28.4703 258.695 28.3669 258.86 28.2828 259.034L30.2167 260.03L28.1547 259.348C28.0094 259.772 27.9733 260.225 28.0495 260.666C28.1257 261.107 28.3119 261.522 28.5911 261.874C28.2763 262.27 28.0805 262.747 28.0261 263.248C27.9717 263.75 28.0609 264.257 28.2835 264.711C28.5061 265.164 28.8531 265.547 29.2849 265.815C29.7166 266.082 30.2158 266.224 30.7251 266.224C31.2345 266.224 31.7336 266.082 32.1654 265.815C32.5972 265.547 32.9442 265.164 33.1668 264.711C33.3894 264.257 33.4786 263.75 33.4242 263.248C33.3698 262.747 33.174 262.27 32.8592 261.874C33.2355 261.399 33.4401 260.814 33.4401 260.21C33.4401 259.607 33.2355 259.021 32.8592 258.547V258.555Z" fill="#78CDEB"/>
<path opacity="0.1" d="M28.0266 260.2C28.0251 260.805 28.2296 261.391 28.6071 261.866C28.2923 262.263 28.0965 262.739 28.0421 263.241C27.9877 263.742 28.0769 264.249 28.2995 264.703C28.5221 265.156 28.8691 265.539 29.3009 265.807C29.7327 266.074 30.2318 266.216 30.7411 266.216C31.2505 266.216 31.7496 266.074 32.1814 265.807C32.6132 265.539 32.9602 265.156 33.1828 264.703C33.4054 264.249 33.4946 263.742 33.4402 263.241C33.3858 262.739 33.19 262.263 32.8752 261.866C33.2315 261.406 28.0266 259.899 28.0266 260.2Z" fill="black"/>
<path d="M111.678 120.737H93.0042C92.7217 120.738 92.4481 120.835 92.2294 121.012C92.0106 121.189 91.8601 121.435 91.803 121.709L86.7502 146.399C86.7423 146.466 86.7423 146.534 86.7502 146.601L86.2698 146.653L85.8414 146.696C85.8155 146.691 85.7901 146.685 85.7653 146.676C85.6995 146.631 85.6442 146.572 85.6028 146.503C85.5615 146.435 85.535 146.359 85.5251 146.28C85.28 145.401 85.102 144.505 84.9926 143.599C84.9305 142.606 84.9305 141.61 84.9926 140.617C85.0166 139.824 84.9926 139.051 84.9926 138.269C85.1254 137.39 85.2043 136.505 85.2288 135.616C85.2764 134.669 85.182 133.72 84.9485 132.801C84.8009 132.302 84.6135 131.815 84.388 131.345C84.2118 130.013 84.0196 128.676 83.8234 127.348C83.6753 126.361 83.5272 125.365 83.331 124.39C83.375 124.227 83.4111 124.064 83.4391 123.898C83.5471 123.091 83.4412 122.269 83.1316 121.515C82.822 120.76 82.3194 120.099 81.6734 119.595C81.2728 119.273 80.8296 119.006 80.3562 118.802C79.9634 118.643 79.5625 118.504 79.155 118.386L72.7129 116.403C72.1164 115.542 71.5118 114.674 70.9753 113.786C70.4524 112.985 69.9958 112.145 69.61 111.271C71.7013 109.793 73.1423 107.579 73.6374 105.082C74.1325 102.585 73.6441 99.9953 72.2725 97.8437C72.1644 97.6772 72.0523 97.5106 71.9362 97.352C71.983 96.5848 71.8922 95.8155 71.6679 95.0797C71.6182 94.8067 71.5363 94.5405 71.4237 94.2866C71.2497 93.9426 71.0273 93.6248 70.7631 93.3428C70.711 93.2833 70.651 93.2278 70.5949 93.1683C70.0674 92.5943 69.4765 92.0808 68.8332 91.6375C66.6952 90.1028 63.8285 88.239 61.206 87.6124C59.9101 87.3203 58.5652 87.3136 57.2663 87.5926L57.0661 87.5371L56.6857 87.4617C56.7818 87.5014 56.8739 87.5529 56.97 87.5966C55.5945 87.2919 54.1654 87.3178 52.802 87.6719C51.1044 88.1716 50.5119 89.504 49.7952 90.9594C48.6317 93.3015 46.8672 95.2995 44.6783 96.7532C43.269 97.6891 41.5994 98.4981 40.9228 100.033C40.2902 101.464 40.7186 103.102 40.8667 104.661C41.0466 106.775 40.6907 108.901 39.8315 110.844C38.9722 112.788 37.6367 114.489 35.9461 115.792C34.0202 117.259 31.4498 118.489 31.0374 120.852C30.7451 122.538 31.706 124.148 32.4307 125.702C33.9642 128.978 34.4887 132.979 32.687 136.124C32.1785 137.016 31.4858 137.833 31.2136 138.821C30.7331 140.577 31.7541 142.489 33.2835 143.512C34.813 144.535 36.7308 144.809 38.5806 144.801C38.8969 144.801 39.2172 144.801 39.5415 144.757C39.3813 146.292 39.1811 147.826 38.9289 149.349C38.5565 151.598 38.0801 153.854 38.2242 156.126C38.3003 157.356 38.5846 158.629 39.3893 159.577C40.6545 161.072 42.8566 161.377 44.8305 161.302C47.9534 161.183 51.0244 160.378 54.1313 160.199C54.0731 160.323 54.0431 160.459 54.0432 160.596C54.0432 161.131 54.3755 161.722 54.2234 162.253C54.159 162.439 54.0643 162.613 53.9431 162.769C53.1424 163.935 52.1935 165.236 52.4697 166.62C52.6059 167.294 53.0303 167.968 52.8341 168.63C52.7101 168.939 52.5371 169.227 52.3216 169.483C51.2245 171.101 51.4528 173.23 51.729 175.161L52.0974 175.265C51.9933 175.487 51.8892 175.713 51.7931 175.939C51.3442 176.941 51.085 178.016 51.0284 179.111C51.059 180.34 51.2694 181.559 51.653 182.728C52.1975 184.711 52.762 186.693 53.4787 188.609C54.0873 190.255 54.8039 191.853 55.5126 193.455C55.7368 193.947 55.957 194.442 56.1772 194.938C57.5439 198.005 58.9132 201.074 60.2851 204.146C60.4575 204.499 60.5917 204.868 60.6855 205.249C60.7576 205.574 60.7736 205.903 60.8256 206.232C61.0419 207.509 61.8827 208.584 62.4992 209.73C64.5772 213.596 64.0607 218.26 63.4962 222.602C63.8048 222.908 64.1504 223.174 64.5252 223.395C64.4651 223.832 64.405 224.272 64.313 224.692C63.7644 227.171 63.1118 229.629 62.7315 232.147C62.54 233.372 62.4463 234.609 62.4512 235.847C62.4512 237.037 62.8796 238.247 62.8796 239.416C63.1719 240.606 63.6163 241.74 63.9286 242.918C64.0567 244.746 64.2729 246.574 64.5492 248.399C64.6399 250.054 64.7334 251.71 64.8294 253.367C64.9135 254.835 64.9816 256.377 64.317 257.694C64.317 257.738 64.2689 257.781 64.2449 257.825C63.6642 257.786 63.0829 257.893 62.5556 258.138C62.0284 258.382 61.5722 258.754 61.23 259.221C60.5295 260.23 60.1261 261.412 60.0649 262.635C59.9801 263.151 60.0396 263.681 60.2371 264.166C60.4293 264.562 60.7656 264.828 60.9858 265.193C61.2017 265.617 61.3374 266.077 61.3862 266.549C61.8346 269.293 62.287 272.046 62.5273 274.818C62.5993 275.662 62.6674 276.554 63.1679 277.244C63.6683 277.935 64.7694 278.272 65.398 277.689C64.7633 274.513 64.4495 271.282 64.4611 268.044C64.6709 268.015 64.8839 268.015 65.0937 268.044C65.2178 268.603 65.39 269.159 65.5501 269.71C65.6572 270.115 65.7909 270.512 65.9505 270.899C65.8864 271.443 65.9505 272.26 65.9265 272.656C65.8945 274.409 65.8945 276.161 65.9265 277.911C65.9505 278.91 65.9865 279.909 66.0346 280.909C66.0301 281.019 66.052 281.129 66.0986 281.23C66.1137 281.249 66.1333 281.264 66.1557 281.274C66.178 281.283 66.2024 281.287 66.2268 281.285C66.5631 281.285 66.9034 281.285 67.2397 281.285C67.2761 280.89 67.2908 280.493 67.2838 280.096C67.2838 279.184 67.2838 278.274 67.2838 277.367C67.2838 276.59 67.2838 275.813 67.2838 275.036C67.52 276.428 67.8563 277.812 68.1966 279.18L68.9173 282.106L68.9894 282.4L69.602 284.878C69.621 284.967 69.6506 285.054 69.6901 285.136C69.7679 285.256 69.8702 285.359 69.9903 285.437C71.2573 286.35 72.7438 286.917 74.3014 287.083C75.8589 287.248 77.4331 287.007 78.8668 286.381C78.9772 286.337 79.0789 286.274 79.167 286.195C79.3276 285.982 79.4006 285.717 79.3712 285.453C79.3332 284.663 79.4898 283.875 79.8277 283.157C80.0122 282.893 80.1629 282.606 80.2761 282.305C80.3449 281.816 80.2492 281.318 80.0038 280.889L79.3432 279.362C79.6559 279.35 79.9675 279.318 80.2761 279.267C80.7445 278.87 80.4042 278.049 80.7926 277.582C80.9542 277.436 81.1268 277.304 81.3091 277.185C81.7975 276.761 81.7495 275.995 81.5293 275.389C80.8166 273.434 78.9108 272.188 77.1251 271.086L76.8929 270.943C75.4355 264.202 72.8651 257.559 73.5497 250.718C73.6979 249.259 73.9941 247.816 74.2344 246.356C75.4355 239.178 75.3594 231.814 76.7447 224.672C77.46 224.632 78.1561 224.429 78.7787 224.077C79.9518 223.356 80.5243 221.96 80.6805 220.607C80.8366 219.255 80.6484 217.891 80.6805 216.527C80.7165 214.572 81.1889 212.652 81.6614 210.745C82.2139 208.52 81.261 206.161 81.8376 203.944C82.0566 203.262 82.2305 202.566 82.3581 201.862C82.4782 200.867 82.278 199.816 82.6343 198.872C82.7945 198.44 83.0707 198.055 83.2549 197.631C84.0557 195.838 83.1748 193.665 83.9796 191.865C84.2395 191.447 84.4326 190.992 84.5521 190.516C84.5798 190.146 84.5322 189.774 84.412 189.422C84.2078 188.597 84.0116 187.764 83.8795 186.927C83.8201 186.639 83.7946 186.345 83.8034 186.051C83.8427 185.739 83.9138 185.432 84.0156 185.135C84.6242 183.049 84.7003 180.848 84.7683 178.671C84.8044 177.517 84.8364 176.292 84.3439 175.253C84.1973 174.938 84.0088 174.645 83.7834 174.38L83.8435 174.348C83.5352 173.107 83.2909 171.664 83.7394 170.462C83.9275 169.951 84.2519 169.459 84.1918 168.916C84.1317 168.372 83.7554 168 83.6032 167.516C83.343 166.723 83.7394 165.866 83.9716 165.049C84.372 163.653 84.2799 162.17 84.1878 160.719C84.1923 160.406 84.1209 160.098 83.9796 159.818C83.8755 159.648 83.7194 159.517 83.6193 159.343C83.5191 159.131 83.4695 158.899 83.4744 158.665C83.4792 158.431 83.5384 158.202 83.6473 157.994C83.8695 157.585 84.0506 157.154 84.1878 156.709C84.2098 156.571 84.2098 156.431 84.1878 156.293C84.4841 156.166 84.7483 155.976 85.0326 155.825C86.2337 155.191 87.6551 155.286 89.0084 155.25C90.3616 155.214 91.8671 154.949 92.6758 153.882C92.7556 153.748 92.8651 153.634 92.9961 153.549C93.0392 153.527 93.085 153.511 93.1323 153.501C93.6247 153.569 93.933 153.565 93.865 153.438C94.0892 153.339 94.1933 153.097 94.3254 152.894C94.3592 152.842 94.3966 152.791 94.4375 152.744C94.9396 152.447 95.4644 152.19 96.007 151.974C95.9099 151.963 95.8118 151.963 95.7147 151.974C96.5491 151.707 97.4246 151.586 98.3012 151.618C99.138 151.618 100.579 151.733 101.232 151.09C102.433 150.333 102.789 148.814 103.346 147.521C103.531 147.102 103.738 146.693 103.967 146.296L107.077 145.994C107.339 145.968 107.585 145.861 107.78 145.687C107.975 145.513 108.109 145.281 108.163 145.027L112.831 122.189C112.866 122.017 112.863 121.839 112.821 121.668C112.78 121.497 112.702 121.337 112.593 121.199C112.483 121.061 112.344 120.949 112.186 120.869C112.029 120.789 111.855 120.744 111.678 120.737ZM52.762 152.066C52.0706 152.362 51.3252 152.515 50.5719 152.515C49.8186 152.515 49.0733 152.362 48.3819 152.066C48.1737 151.974 47.9454 151.721 48.1136 151.57C48.2818 151.419 48.4179 151.546 48.554 151.483C48.8143 151.356 48.6261 150.975 48.4819 150.729C48.0816 150.015 48.3578 149.111 48.7542 148.39C49.1506 147.668 49.6591 146.954 49.6751 146.133C49.6508 145.869 49.6508 145.604 49.6751 145.34C49.802 144.966 50.0035 144.621 50.2676 144.325C50.3397 144.222 50.3998 144.111 50.4638 144C50.5719 144.166 50.68 144.329 50.7921 144.491C51.1525 145.039 51.5115 145.59 51.8692 146.145C52.1549 146.519 52.3358 146.961 52.3937 147.426C52.3535 147.701 52.3685 147.981 52.4377 148.251C52.5979 148.6 53.0943 148.889 52.9101 149.226C52.8192 149.407 52.7718 149.607 52.7718 149.809C52.7718 150.012 52.8192 150.211 52.9101 150.392C53.0983 150.713 53.3786 150.979 53.5668 151.296C53.6202 151.392 53.6657 151.491 53.7029 151.594C53.3986 151.752 53.0823 151.927 52.762 152.066ZM91.5988 147.787C91.3626 147.842 91.1264 147.898 90.8902 147.961C90.8581 147.818 90.8461 147.739 90.8461 147.739L89.5969 148.108C89.1213 148.129 88.6479 148.032 88.2196 147.826L93.3765 147.327C92.7879 147.493 92.1954 147.648 91.5988 147.787Z" fill="url(#paint2_linear)"/>
<path d="M53.6508 91.9985C52.5031 94.3253 50.7596 96.3134 48.594 97.7645C47.1967 98.6964 45.5471 99.4975 44.8785 101.024C44.2539 102.448 44.6783 104.082 44.8225 105.628C44.9995 107.718 44.6508 109.819 43.8074 111.743C42.9641 113.667 41.6525 115.354 39.9899 116.653C38.0881 118.116 35.5457 119.337 35.1373 121.689C34.849 123.363 35.8019 124.969 36.5186 126.511C38.032 129.771 38.5525 133.753 36.7708 136.877C36.2664 137.766 35.5697 138.579 35.3134 139.562C34.837 141.311 35.846 143.211 37.3594 144.226C38.8728 145.241 40.7706 145.519 42.5964 145.511C43.9216 145.511 45.359 145.312 46.3039 144.388C46.9365 143.77 47.2488 142.909 47.545 142.08L49.8472 135.62C50.2476 134.454 50.704 133.241 51.5769 132.369C53.4306 130.497 56.4495 130.695 59.096 130.727C62.9913 130.773 66.8666 130.168 70.5589 128.938C72.7209 128.213 75.0671 126.983 75.5716 124.782C76.0761 122.581 74.5787 120.579 73.2694 118.794C72.2898 117.472 71.3636 116.104 70.4908 114.69C69.638 113.326 68.8252 111.886 68.589 110.3C68.1886 107.663 69.4498 105.101 70.4147 102.614C71.3796 100.128 72.0563 97.1855 70.6509 94.9132C70.0439 94.0284 69.2704 93.2676 68.3728 92.6726C66.2588 91.1459 63.4241 89.2939 60.8336 88.6713C59.4448 88.3485 57.9973 88.3675 56.6176 88.7269C54.9401 89.2424 54.3515 90.5669 53.6508 91.9985Z" fill="#3F3D56"/>
<path d="M82.0778 122.823C82.5973 124.574 82.9656 126.365 83.1788 128.177C83.8194 132.539 84.4641 136.957 84.3439 141.378C84.2859 142.365 84.2859 143.354 84.3439 144.341C84.4553 145.242 84.6333 146.134 84.8764 147.01C84.8851 147.088 84.9107 147.165 84.9514 147.233C84.9922 147.301 85.0471 147.36 85.1127 147.406C85.2648 147.481 85.445 147.406 85.6131 147.386C86.1857 147.319 86.6101 147.866 87.0505 148.235C87.4834 148.581 88.0127 148.789 88.5677 148.83C89.1228 148.871 89.6773 148.744 90.1575 148.465C90.0096 149.115 90.0562 149.793 90.2916 150.417C90.5269 151.041 90.9409 151.584 91.4827 151.978C92.0362 152.361 92.6663 152.621 93.3302 152.741C93.9941 152.86 94.6763 152.837 95.3304 152.672C94.6657 152.569 94.0291 153.029 93.6648 153.589C93.5367 153.787 93.4326 154.029 93.2123 154.128C92.9921 154.227 92.6118 154.1 92.3515 154.235C92.2227 154.322 92.1147 154.435 92.0352 154.568C91.2345 155.631 89.7491 155.893 88.4118 155.928C87.0745 155.964 85.6572 155.873 84.4801 156.503C84.1878 156.658 83.9155 156.856 83.6112 156.983C82.6824 157.38 81.5733 156.983 80.8526 156.305C80.1653 155.574 79.6775 154.681 79.4353 153.711C78.2342 149.873 78.4744 145.76 78.7186 141.751C79.107 135.378 79.9238 128.851 82.0778 122.823Z" fill="#454B69"/>
<path opacity="0.1" d="M82.0778 122.823C82.5973 124.574 82.9656 126.365 83.1788 128.177C83.8194 132.539 84.4641 136.957 84.3439 141.378C84.2859 142.365 84.2859 143.354 84.3439 144.341C84.4553 145.242 84.6333 146.134 84.8764 147.01C84.8851 147.088 84.9107 147.165 84.9514 147.233C84.9922 147.301 85.0471 147.36 85.1127 147.406C85.2648 147.481 85.445 147.406 85.6131 147.386C86.1857 147.319 86.6101 147.866 87.0505 148.235C87.4834 148.581 88.0127 148.789 88.5677 148.83C89.1228 148.871 89.6773 148.744 90.1575 148.465C90.0096 149.115 90.0562 149.793 90.2916 150.417C90.5269 151.041 90.9409 151.584 91.4827 151.978C92.0362 152.361 92.6663 152.621 93.3302 152.741C93.9941 152.86 94.6763 152.837 95.3304 152.672C94.6657 152.569 94.0291 153.029 93.6648 153.589C93.5367 153.787 93.4326 154.029 93.2123 154.128C92.9921 154.227 92.6118 154.1 92.3515 154.235C92.2227 154.322 92.1147 154.435 92.0352 154.568C91.2345 155.631 89.7491 155.893 88.4118 155.928C87.0745 155.964 85.6572 155.873 84.4801 156.503C84.1878 156.658 83.9155 156.856 83.6112 156.983C82.6824 157.38 81.5733 156.983 80.8526 156.305C80.1653 155.574 79.6775 154.681 79.4353 153.711C78.2342 149.873 78.4744 145.76 78.7186 141.751C79.107 135.378 79.9238 128.851 82.0778 122.823Z" fill="black"/>
<path d="M62.5233 239.623C62.8596 241.007 63.4121 242.335 63.7244 243.723C63.952 244.919 64.0858 246.131 64.1248 247.348L64.4691 253.502C64.5532 254.962 64.6213 256.496 63.9646 257.805C63.5122 258.713 62.7275 259.475 62.5032 260.462C62.1509 262.009 63.268 263.472 64.317 264.674L69.4659 270.582C71.0674 272.434 72.8411 274.381 75.2313 275.012C75.5865 275.132 75.9694 275.146 76.3324 275.052C76.997 274.833 77.3213 274.036 77.2252 273.346C77.0745 272.665 76.76 272.03 76.3083 271.494C74.9591 269.619 73.5057 267.775 72.6409 265.641C71.5278 262.929 71.4117 259.927 71.4798 257C71.752 245.064 74.7829 233.266 74.4386 221.309C71.8081 221.111 69.0735 220.679 66.431 220.703C64.0807 220.727 64.361 223.082 63.9526 224.966C63.4081 227.432 62.7515 229.879 62.3871 232.381C62.1972 233.6 62.1048 234.832 62.1109 236.066C62.1109 237.267 62.5233 238.469 62.5233 239.623Z" fill="#FBBEBE"/>
<path opacity="0.05" d="M62.5233 239.623C62.8596 241.007 63.4121 242.335 63.7244 243.723C63.952 244.919 64.0858 246.131 64.1248 247.348L64.4691 253.502C64.5532 254.962 64.6213 256.496 63.9646 257.805C63.5122 258.713 62.7275 259.475 62.5032 260.462C62.1509 262.009 63.268 263.472 64.317 264.674L69.4659 270.582C71.0674 272.434 72.8411 274.381 75.2313 275.012C75.5865 275.132 75.9694 275.146 76.3324 275.052C76.997 274.833 77.3213 274.036 77.2252 273.346C77.0745 272.665 76.76 272.03 76.3083 271.494C74.9591 269.619 73.5057 267.775 72.6409 265.641C71.5278 262.929 71.4117 259.927 71.4798 257C71.752 245.064 74.7829 233.266 74.4386 221.309C71.8081 221.111 69.0735 220.679 66.431 220.703C64.0807 220.727 64.361 223.082 63.9526 224.966C63.4081 227.432 62.7515 229.879 62.3871 232.381C62.1972 233.6 62.1048 234.832 62.1109 236.066C62.1109 237.267 62.5233 238.469 62.5233 239.623Z" fill="black"/>
<path d="M64.0807 257.96C62.8796 257.714 61.6304 258.356 60.8777 259.324C60.1832 260.328 59.784 261.503 59.7246 262.719C59.6366 263.232 59.6963 263.76 59.8968 264.241C60.0849 264.618 60.4173 264.904 60.6335 265.265C60.8496 265.686 60.9853 266.143 61.0338 266.613C61.4823 269.345 61.9307 272.081 62.1629 274.838C62.235 275.678 62.303 276.567 62.7995 277.253C63.296 277.939 64.401 278.272 65.0056 277.697C64.3791 274.55 64.0667 271.351 64.0727 268.144C65.4781 267.953 66.7032 269.048 67.6201 270.126C68.5587 271.219 69.419 272.376 70.1945 273.588C70.8469 274.736 71.6026 275.823 72.4527 276.836C73.3743 277.804 74.5203 278.535 75.7914 278.966C77.0626 279.396 78.4205 279.513 79.7476 279.307C80.212 278.91 79.8717 278.093 80.2561 277.629C80.4163 277.484 80.5876 277.352 80.7686 277.233C81.253 276.812 81.201 276.043 80.9848 275.448C80.2841 273.501 78.3983 272.276 76.6326 271.165C73.4296 269.183 70.1865 267.2 66.9635 265.28C65.7345 264.527 64.7989 263.384 64.3089 262.037C64.1928 261.692 63.6884 257.829 64.0807 257.96Z" fill="#3F3D56"/>
<path opacity="0.05" d="M64.0807 257.96C62.8796 257.714 61.6304 258.356 60.8777 259.324C60.1832 260.328 59.784 261.503 59.7246 262.719C59.6366 263.232 59.6963 263.76 59.8968 264.241C60.0849 264.618 60.4173 264.904 60.6335 265.265C60.8496 265.686 60.9853 266.143 61.0338 266.613C61.4823 269.345 61.9307 272.081 62.1629 274.838C62.235 275.678 62.303 276.567 62.7995 277.253C63.296 277.939 64.401 278.272 65.0056 277.697C64.3791 274.55 64.0667 271.351 64.0727 268.144C65.4781 267.953 66.7032 269.048 67.6201 270.126C68.5587 271.219 69.419 272.376 70.1945 273.588C70.8469 274.736 71.6026 275.823 72.4527 276.836C73.3743 277.804 74.5203 278.535 75.7914 278.966C77.0626 279.396 78.4205 279.513 79.7476 279.307C80.212 278.91 79.8717 278.093 80.2561 277.629C80.4163 277.484 80.5876 277.352 80.7686 277.233C81.253 276.812 81.201 276.043 80.9848 275.448C80.2841 273.501 78.3983 272.276 76.6326 271.165C73.4296 269.183 70.1865 267.2 66.9635 265.28C65.7345 264.527 64.7989 263.384 64.3089 262.037C64.1928 261.692 63.6884 257.829 64.0807 257.96Z" fill="black"/>
<path d="M63.5602 236.157C62.9156 244.132 64.7213 252.071 66.3269 259.911C66.4778 260.537 66.5596 261.178 66.5711 261.822C66.5038 262.625 66.3699 263.421 66.1707 264.202C65.5621 267.438 66.3389 270.753 67.1116 273.953C67.6481 276.17 68.4048 278.672 70.4908 279.64C71.9602 280.326 73.6938 280.036 75.2954 279.715C75.8217 279.66 76.3221 279.461 76.7407 279.14C77.3173 278.605 77.3373 277.72 77.2893 276.943C76.7367 268.14 72.2365 259.697 73.1133 250.917C73.2574 249.465 73.5497 248.03 73.7899 246.586C75.0311 239.123 74.871 231.442 76.4725 224.054C76.552 223.795 76.552 223.519 76.4725 223.261C76.337 223.007 76.122 222.804 75.8599 222.682C74.4025 221.817 72.845 221.052 71.1634 220.818C69.8502 220.635 68.2006 220.778 67.0956 221.583C65.9905 222.388 65.8624 224.248 65.5221 225.577C64.5681 229.042 63.9118 232.582 63.5602 236.157Z" fill="#FBBEBE"/>
<path d="M65.6623 280.94C65.6557 281.05 65.6763 281.158 65.7223 281.258C65.7372 281.277 65.7566 281.293 65.779 281.303C65.8013 281.313 65.8258 281.318 65.8504 281.317C66.1868 281.317 66.5191 281.317 66.8554 281.317C66.8954 280.921 66.8954 280.524 66.8994 280.128V277.415C66.8994 275.266 66.8994 273.108 66.8033 270.971C66.8047 270.891 66.7925 270.812 66.7673 270.737C66.7442 270.69 66.7042 270.653 66.6552 270.634C66.419 270.523 65.8544 270.178 65.6542 270.574C65.4541 270.971 65.5421 272.22 65.5301 272.74C65.4981 274.482 65.4981 276.224 65.5301 277.966C65.5755 278.958 65.6195 279.949 65.6623 280.94Z" fill="#3F3D56"/>
<path d="M83.2429 186.587C83.2344 186.879 83.2599 187.172 83.319 187.459C83.4631 188.292 83.6433 189.117 83.8475 189.938C83.9636 190.289 84.0098 190.659 83.9836 191.028C83.8643 191.5 83.674 191.952 83.4191 192.368C82.6183 194.141 83.4791 196.334 82.7024 198.103C82.5182 198.527 82.2459 198.896 82.0858 199.34C81.7374 200.28 81.9336 201.323 81.8175 202.314C81.6913 203.015 81.5187 203.706 81.301 204.384C80.7365 206.589 81.6694 208.937 81.1249 211.15C80.6604 213.045 80.188 214.957 80.156 216.904C80.1279 218.256 80.3161 219.612 80.156 220.961C79.9958 222.309 79.4313 223.693 78.2742 224.411C77.3613 224.978 76.2282 225.041 75.1472 225.061C73.0692 225.097 70.9793 225.037 68.9013 224.879C66.8233 224.72 64.5932 224.383 63.1318 222.92C63.6883 218.601 64.1968 213.965 62.1429 210.115C61.5343 208.976 60.7015 207.906 60.4893 206.637C60.4333 206.312 60.4172 205.982 60.3492 205.661C60.2543 205.282 60.1201 204.914 59.9488 204.563C58.5955 201.504 57.2409 198.449 55.885 195.398C55.6687 194.906 55.4525 194.415 55.2283 193.923C54.5277 192.337 53.823 190.75 53.2264 189.109C52.5178 187.189 51.9572 185.222 51.4207 183.255C51.041 182.091 50.8333 180.878 50.8041 179.655C50.8624 178.572 51.1188 177.509 51.5609 176.518C51.8011 175.939 52.0813 175.372 52.3616 174.817C60.4132 172.935 68.6996 172.233 76.9569 172.731C78.2773 172.755 79.5871 172.97 80.8446 173.369C81.6967 173.668 82.4642 174.164 83.0827 174.817C83.3675 175.12 83.6014 175.467 83.7754 175.844C84.2598 176.891 84.2278 178.096 84.1958 179.246C84.1237 181.407 84.0516 183.608 83.4511 185.674C83.3502 185.971 83.2804 186.276 83.2429 186.587Z" fill="#3F3D56"/>
<path d="M77.5976 276.515C76.3765 277.43 74.9436 278.027 73.4296 278.252C72.0923 278.446 70.627 278.307 69.566 277.459C68.3648 276.511 67.9364 274.901 67.5921 273.41L67.1316 271.427C66.9635 270.713 66.7993 269.999 66.6672 269.278C66.3233 267.372 66.2224 265.431 66.3669 263.5C65.2699 263.924 64.6133 265.213 64.5412 266.375C64.4691 267.537 64.8335 268.675 65.1658 269.793C65.2968 270.333 65.4973 270.854 65.7623 271.344C65.9585 271.669 66.2148 271.958 66.3829 272.299C66.5927 272.804 66.7132 273.341 66.7393 273.886C66.9882 275.677 67.3479 277.452 67.8163 279.2L68.529 282.11L68.601 282.404L69.2056 284.871C69.2241 284.958 69.2537 285.044 69.2937 285.124C69.3689 285.245 69.4701 285.348 69.59 285.426C70.84 286.333 72.3097 286.898 73.8507 287.063C75.3916 287.228 76.9493 286.988 78.3663 286.366C78.4763 286.321 78.5778 286.258 78.6666 286.179C78.8209 285.967 78.8908 285.706 78.8628 285.446C78.8282 284.658 78.9847 283.873 79.3192 283.157C79.5005 282.893 79.6484 282.608 79.7596 282.309C79.8255 281.823 79.7314 281.329 79.4914 280.901L78.01 277.467C77.9226 277.13 77.7835 276.809 77.5976 276.515Z" fill="#3F3D56"/>
<path d="M74.1223 133.638C74.0665 134.393 73.9159 135.139 73.6738 135.858C73.4938 136.38 73.1775 136.845 72.757 137.207C72.0683 136.287 70.8392 135.969 69.9063 135.291C69.1389 134.646 68.4712 133.892 67.9244 133.055C66.7232 131.468 65.354 130.061 64.0727 128.562C63.8765 128.332 63.6724 128.105 63.5002 127.875C62.8452 127.085 62.2522 126.246 61.7265 125.365C60.6575 123.541 59.9248 121.443 58.3153 120.063C57.4384 119.31 56.3374 118.814 55.5607 117.961C56.0343 117.158 56.3432 116.27 56.4695 115.348C56.6537 114.464 56.8339 113.575 56.93 112.675C56.958 112.437 56.974 112.199 56.982 111.961C56.982 111.858 56.982 111.759 56.982 111.656C56.982 110.922 56.5056 109.673 57.2623 109.253C57.9549 108.856 59.092 108.856 59.9088 108.88H60.0569C61.9532 108.901 63.8023 109.469 65.378 110.514C65.7366 110.731 66.0493 111.016 66.2988 111.351C66.6641 112.011 66.8045 112.77 66.6992 113.516C66.6992 113.69 66.6992 113.865 66.6712 114.035V114.289C66.6432 115.138 66.7273 116.046 67.3278 116.637C67.9284 117.228 68.9934 117.303 69.8702 117.573C70.0144 117.62 70.1505 117.668 70.2906 117.723C71.2508 118.153 72.0705 118.839 72.6569 119.706C73.316 120.703 73.7817 121.812 74.0302 122.978C74.2747 124.02 74.4287 125.082 74.4906 126.15C74.577 128.652 74.4538 131.156 74.1223 133.638Z" fill="#FBBEBE"/>
<path opacity="0.1" d="M66.6832 114.016V114.269C65.6142 114.666 63.0077 113.571 61.8026 113.571C59.4003 113.571 58.6716 114.035 56.942 112.655C56.978 112.318 57.002 111.977 57.01 111.636C57.01 110.903 56.5336 109.653 57.2903 109.233C58.047 108.813 59.2522 108.836 60.0689 108.86C61.9652 108.881 63.8143 109.449 65.39 110.494C65.7486 110.711 66.0614 110.996 66.3109 111.331C66.8193 112.092 66.7393 113.096 66.6832 114.016Z" fill="black"/>
<path d="M73.3095 104.137C73.3099 105.61 72.9807 107.064 72.3457 108.396C71.7107 109.728 70.7856 110.903 69.637 111.838C68.4885 112.773 67.1449 113.445 65.703 113.804C64.2611 114.164 62.7567 114.202 61.2981 113.916C59.0121 113.468 56.9538 112.248 55.4739 110.465C53.9941 108.682 53.1843 106.445 53.1824 104.137C53.1557 102.811 53.3964 101.493 53.8903 100.26C54.3842 99.0269 55.1216 97.904 56.0591 96.9567C56.9966 96.0094 58.1154 95.2569 59.3502 94.7432C60.5849 94.2295 61.9107 93.9648 63.2499 93.9648C64.5892 93.9648 65.915 94.2295 67.1497 94.7432C68.3844 95.2569 69.5033 96.0094 70.4408 96.9567C71.3783 97.904 72.1156 99.0269 72.6096 100.26C73.1035 101.493 73.3442 102.811 73.3175 104.137H73.3095Z" fill="#FBBEBE"/>
<path d="M56.3734 115.919C56.0574 115.657 55.6702 115.492 55.2604 115.447C54.9654 115.476 54.6845 115.586 54.45 115.766C54.2155 115.945 54.0371 116.187 53.9351 116.462C53.6909 116.998 53.6148 117.589 53.4026 118.14C53.1147 118.881 52.5921 119.51 51.9132 119.932C51.4368 120.226 50.8722 120.432 50.5479 120.884C50.0354 121.602 50.3477 122.605 50.7801 123.374C52.3817 126.242 55.3044 128.133 58.1031 129.882L61.2581 131.865C62.5251 132.696 63.8377 133.457 65.1898 134.145C67.3799 135.216 69.7501 135.902 71.9282 136.996C72.9291 137.496 73.9301 138.095 75.0231 138.265C75.2564 137.527 75.4028 136.765 75.4595 135.993C76 131.234 76.5325 126.368 75.4595 121.697C75.3179 120.792 74.9335 119.942 74.3465 119.234C73.9335 118.843 73.4605 118.519 72.9451 118.275C71.6668 117.593 70.3515 116.981 69.0054 116.443C68.3743 116.14 67.6805 115.988 66.9795 115.998C67.0403 116.519 67.1977 117.025 67.4439 117.489C69.1335 121.22 70.8258 124.951 72.5207 128.684C72.8928 129.365 73.1036 130.12 73.1373 130.893C73.1013 131.992 72.3366 133.062 72.6609 134.117C69.7075 129.863 66.3198 125.922 62.5513 122.355C62.3859 122.218 62.2498 122.049 62.1509 121.86C62.0598 121.56 62.0406 121.244 62.0949 120.936C62.1309 120.349 62.0068 119.563 61.5103 119.171C61.166 118.897 60.6575 118.818 60.2771 118.58C58.9519 117.747 57.6747 116.807 56.3734 115.919Z" fill="#78CDEB"/>
<path opacity="0.1" d="M83.2789 175.701C80.7347 176.968 77.9634 177.727 75.1232 177.934C72.2913 178.134 69.4491 178.15 66.6151 177.981L60.161 177.739C57.2302 177.624 54.3515 177.39 51.5569 176.518C51.7971 175.939 52.0773 175.372 52.3576 174.817C60.4092 172.935 68.6956 172.233 76.9529 172.731C78.2733 172.755 79.5831 172.97 80.8406 173.369C81.6927 173.668 82.4602 174.164 83.0787 174.817C83.1428 175.118 83.2149 175.415 83.2789 175.701Z" fill="black"/>
<path d="M82.8265 144.539C81.7135 148.271 82.4782 152.355 83.1708 156.182C83.3654 156.313 83.5139 156.5 83.5958 156.718C83.6776 156.937 83.6886 157.175 83.6273 157.4C83.4889 157.841 83.3093 158.268 83.0908 158.676C82.9823 158.882 82.923 159.109 82.9174 159.341C82.9119 159.573 82.9602 159.803 83.0587 160.013C83.1588 160.187 83.315 160.322 83.4191 160.493C83.558 160.77 83.628 161.076 83.6233 161.385C83.7113 162.828 83.7994 164.304 83.4071 165.696C83.1789 166.489 82.7905 167.345 83.0467 168.146C83.1989 168.63 83.5752 169.039 83.6273 169.542C83.6793 170.046 83.367 170.569 83.1788 171.077C82.7344 172.267 82.9747 173.706 83.283 174.943C80.7387 176.211 77.9674 176.969 75.1272 177.176C72.2954 177.378 69.4531 177.394 66.6192 177.224L60.165 176.982C57.2102 176.871 54.3115 176.633 51.4968 175.744C51.2246 173.821 50.9963 171.704 52.0854 170.097C52.2956 169.84 52.4657 169.552 52.5899 169.245C52.782 168.587 52.3616 167.916 52.2295 167.262C51.9533 165.886 52.8861 164.589 53.6829 163.435C53.8056 163.281 53.9004 163.106 53.9632 162.92C54.1113 162.388 53.787 161.805 53.783 161.27C53.7797 161.116 53.8155 160.963 53.8871 160.826C54.0032 160.6 54.2274 160.429 54.3475 160.223C54.4753 159.934 54.5143 159.614 54.4596 159.303C54.3102 157.307 54.0673 155.324 53.7309 153.355C53.6989 153.18 53.6669 152.998 53.6228 152.819C53.5657 152.542 53.4672 152.275 53.3306 152.026C53.1424 151.705 52.8661 151.447 52.6819 151.126C52.591 150.946 52.5437 150.747 52.5437 150.545C52.5437 150.343 52.591 150.144 52.6819 149.964C52.8621 149.631 52.3696 149.341 52.2135 148.996C52.1464 148.728 52.1315 148.449 52.1695 148.175C52.1125 147.712 51.9329 147.271 51.649 146.899C51.2966 146.347 50.9443 145.8 50.584 145.257C48.9824 142.795 47.3129 140.376 45.5752 138C44.7504 136.862 43.9056 135.727 43.0528 134.609C42.3602 133.705 41.6475 132.789 41.2992 131.706C41.2375 131.518 41.1893 131.326 41.155 131.131C40.9616 130.092 41.1119 129.018 41.5834 128.07C42.05 127.283 42.586 126.538 43.1849 125.845C43.7518 124.994 44.3667 124.176 45.0267 123.394C45.3598 123.005 45.7686 122.686 46.2288 122.456C46.6889 122.227 47.1911 122.091 47.7052 122.058C48.3018 122.058 48.9985 122.224 49.4108 121.8C49.563 121.649 49.6431 121.447 49.8112 121.3C50.2476 120.904 50.9643 121.17 51.4888 121.463L61.5704 127.106L63.2039 128.026C63.5002 128.201 63.8045 128.375 64.1008 128.554C65.4995 129.362 66.8399 130.266 68.1126 131.258C69.9783 132.741 72.0483 134.105 73.6738 135.842C73.83 136.005 73.9781 136.168 74.1223 136.338C74.4159 134.308 74.7095 132.275 75.0031 130.239C75.1116 129.653 75.1506 129.057 75.1192 128.462C75.0431 127.878 74.8979 127.304 74.6868 126.753C74.6227 126.555 74.5547 126.357 74.4906 126.158C74.1263 125.08 73.7619 124.005 73.4016 122.926C72.8691 121.34 72.3005 119.702 71.0994 118.536C70.8077 118.291 70.5396 118.018 70.2986 117.723C70.1848 117.576 70.1074 117.404 70.0726 117.222C70.0378 117.039 70.0467 116.851 70.0985 116.673L78.5905 119.298C78.9909 119.425 79.3913 119.548 79.7916 119.694C80.2617 119.898 80.7009 120.165 81.0969 120.488C81.7357 120.991 82.2319 121.65 82.5371 122.4C82.8423 123.15 82.9462 123.965 82.8385 124.766C82.7544 125.294 82.5703 125.794 82.4582 126.313C82.262 127.253 81.9577 128.335 82.3701 129.208C82.7825 130.08 83.1708 130.85 83.5432 131.671C83.8653 132.296 84.1332 132.947 84.344 133.618C84.5759 134.534 84.6691 135.478 84.6202 136.421C84.5699 138.526 84.2028 140.611 83.5312 142.608C83.2789 143.238 83.0267 143.881 82.8265 144.539Z" fill="#454B69"/>
<path d="M65.4981 149.266L85.6332 147.39L89.1525 146.998L85.9174 148.132L65.4981 149.266Z" fill="#3F3D56"/>
<path d="M65.0457 150.234V148.731L86.3899 147.688L87.4309 148.572L65.0457 150.234Z" fill="#3F3D56"/>
<path d="M65.1137 147.374C65.5622 147.255 66.0426 147.279 66.4951 147.172C67.0836 147.033 67.6121 146.676 68.2127 146.601C68.583 146.572 68.9556 146.599 69.3177 146.68L72.0804 147.156C72.2926 147.196 72.5408 147.259 72.6169 147.462C72.6371 147.553 72.6322 147.648 72.6026 147.736C72.573 147.825 72.5198 147.904 72.4487 147.965C71.9522 148.485 71.1595 148.56 70.4468 148.604L68.521 148.719C68.1459 148.713 67.7749 148.797 67.44 148.965C67.2786 149.056 67.1544 149.2 67.0887 149.372C67.023 149.545 67.0197 149.734 67.0796 149.908C67.1828 150.081 67.3363 150.22 67.52 150.305C68.2874 150.724 69.1696 150.889 70.0384 150.777C70.7404 150.645 71.4291 150.451 72.0964 150.198C73.7907 149.659 75.5787 149.472 77.3494 149.647C77.8098 149.69 78.3463 149.821 78.5105 150.249C78.554 150.4 78.5599 150.559 78.5279 150.712C78.4958 150.865 78.4266 151.009 78.3263 151.13C77.6376 152.078 76.2683 152.109 75.1232 152.367C74.0285 152.615 73.0156 153.135 72.1804 153.878C72.4367 154.398 72.2245 155.016 71.9682 155.532C71.6785 156.128 71.3326 156.697 70.9353 157.229C70.7214 157.56 70.4212 157.827 70.0664 158.002C69.8332 158.082 69.5886 158.125 69.3418 158.129C66.9494 158.269 64.5487 158.136 62.187 157.733C61.932 157.715 61.69 157.614 61.4983 157.447C61.3765 157.286 61.3005 157.096 61.2781 156.896C61.0339 155.706 60.8177 154.516 60.6335 153.299C60.4536 152.544 60.5267 151.752 60.8417 151.043C61.138 150.491 61.6024 150.313 62.0749 149.94C63.0998 149.135 63.7565 147.731 65.1137 147.374Z" fill="#FBBEBE"/>
<path d="M91.1184 122.573L86.1216 147.121C86.081 147.305 86.0853 147.497 86.1344 147.68C86.1835 147.863 86.2759 148.031 86.4039 148.172C86.5319 148.312 86.6918 148.42 86.8704 148.487C87.049 148.554 87.2411 148.578 87.4309 148.556L106.277 146.724C106.537 146.701 106.782 146.595 106.975 146.422C107.169 146.249 107.3 146.018 107.35 145.764L111.966 123.045C112.004 122.87 112.002 122.688 111.959 122.513C111.916 122.338 111.833 122.176 111.718 122.037C111.602 121.899 111.456 121.788 111.291 121.713C111.126 121.638 110.946 121.602 110.765 121.606H92.3075C92.0263 121.604 91.7532 121.699 91.5359 121.876C91.3186 122.053 91.1709 122.3 91.1184 122.573Z" fill="#3F3D56"/>
<path d="M100.495 151.796C101.696 151.047 102.037 149.532 102.585 148.251C103.025 147.312 103.531 146.404 104.099 145.534C104.579 144.741 105.06 143.793 104.679 142.957C104.379 142.423 103.883 142.024 103.294 141.842C102.762 141.589 102.162 141.516 101.584 141.632C100.936 141.807 100.455 142.338 100.019 142.842L98.4653 144.626C97.7998 145.481 96.9994 146.224 96.0951 146.827C95.5261 147.14 94.9247 147.391 94.3014 147.577C93.1883 147.941 92.0593 148.263 90.9182 148.532C90.2621 148.659 89.6217 148.856 89.0084 149.119C88.8853 149.164 88.7724 149.233 88.6762 149.322C88.58 149.41 88.5024 149.517 88.4478 149.635C88.398 149.932 88.4685 150.237 88.644 150.483C89.0444 151.209 89.4888 152.688 90.3096 152.946C91.0913 153.138 91.8884 153.261 92.6919 153.315C93.4926 153.398 94.0972 153.081 94.8059 152.784C95.6995 152.447 96.6535 152.296 97.6085 152.339C98.4253 152.324 99.8507 152.439 100.495 151.796Z" fill="#FBBEBE"/>
<path d="M90.1775 148.469C90.1775 148.469 90.8861 153.192 95.3304 152.673C95.3304 152.673 92.9641 153.604 93.2123 154.128C93.4606 154.651 87.7271 153.109 87.7271 153.109L87.4309 150.646C87.4309 150.646 87.2427 149.286 87.4309 149.25C87.619 149.215 90.1775 148.469 90.1775 148.469Z" fill="#454B69"/>
<path opacity="0.1" d="M90.1775 148.469C90.1775 148.469 90.8861 153.192 95.3304 152.673C95.3304 152.673 92.9641 153.604 93.2123 154.128C93.4606 154.651 87.7271 153.109 87.7271 153.109L87.4309 150.646C87.4309 150.646 87.2427 149.286 87.4309 149.25C87.619 149.215 90.1775 148.469 90.1775 148.469Z" fill="black"/>
<path opacity="0.1" d="M69.638 128.732C70.0765 128.95 70.437 129.296 70.671 129.723C71.0445 130.31 71.3266 130.949 71.5078 131.619C71.728 132.412 71.8321 133.344 72.4407 133.931" fill="black"/>
<path opacity="0.1" d="M50.9523 141.815C51.278 142.963 51.1432 144.192 50.5759 145.245C48.9744 142.784 47.3048 140.364 45.5672 137.988C44.7424 136.85 43.8976 135.715 43.0448 134.597C42.3521 133.693 41.6395 132.777 41.2911 131.694C41.2295 131.506 41.1813 131.314 41.147 131.119C41.574 130.49 42.2146 130.032 42.9527 129.83C44.1218 133.189 47.0846 135.596 49.2066 138.468C49.9991 139.462 50.5917 140.599 50.9523 141.815Z" fill="black"/>
<path opacity="0.1" d="M65.8785 159.017L58.8638 159.255C58.2672 159.275 57.5305 159.39 57.3424 159.953C57.2863 160.132 57.2943 160.326 57.2383 160.505C57.0421 161.135 56.1893 161.21 55.5206 161.206C54.9401 161.206 54.3595 161.23 53.783 161.274C53.7797 161.12 53.8155 160.967 53.8871 160.83C54.0032 160.604 54.2274 160.433 54.3475 160.227C54.4753 159.938 54.5143 159.618 54.4596 159.307C54.3102 157.311 54.0673 155.328 53.7309 153.359C53.6989 153.184 53.6669 153.002 53.6228 152.823C54.1661 152.468 54.8019 152.278 55.4526 152.276C56.0291 152.339 56.5576 152.672 57.1342 152.645C58.1351 152.593 58.8278 151.487 59.8287 151.423C60.0425 151.439 60.2573 151.413 60.4613 151.348C60.7776 151.189 60.8297 150.773 60.9938 150.464C61.2341 150.004 61.9067 149.893 62.4152 150.012C62.4013 151.062 62.4695 152.112 62.6194 153.152C62.6695 153.608 62.7771 154.056 62.9397 154.485C63.1306 154.919 63.3696 155.332 63.6523 155.714C64.4051 156.824 65.1257 157.899 65.8785 159.017Z" fill="black"/>
<path d="M42.5683 129.454C41.3232 129.763 40.4383 130.921 40.074 132.143C39.7096 133.364 39.7737 134.665 39.8097 135.938C39.9325 140.662 39.6068 145.387 38.8368 150.051C38.4685 152.288 37.996 154.532 38.1361 156.793C38.2122 158.018 38.4965 159.283 39.2892 160.227C40.5424 161.71 42.7205 162.016 44.6743 161.94C48.1817 161.805 51.6249 160.786 55.1363 160.81C55.8049 160.81 56.6537 160.735 56.8539 160.104C56.9099 159.93 56.8979 159.735 56.958 159.557C57.1422 158.994 57.8789 158.875 58.4794 158.855L65.4941 158.621C64.7414 157.523 64.0207 156.444 63.268 155.345C62.9863 154.962 62.7461 154.55 62.5513 154.116C62.3906 153.685 62.283 153.236 62.231 152.78C62.0823 151.741 62.0154 150.692 62.0308 149.643C61.5223 149.528 60.8297 149.643 60.6054 150.091C60.4413 150.404 60.3892 150.817 60.0769 150.975C59.8725 151.045 59.6555 151.07 59.4403 151.051C58.4434 151.118 57.7507 152.24 56.7498 152.276C56.1732 152.304 55.6407 151.967 55.0682 151.907C54.1593 151.812 53.3466 152.407 52.5138 152.772C51.8308 153.068 51.0933 153.221 50.3477 153.221C49.6021 153.221 48.8647 153.068 48.1817 152.772C47.9775 152.684 47.7493 152.431 47.9174 152.28C48.0856 152.129 48.2177 152.256 48.3538 152.193C48.6101 152.066 48.4219 151.689 48.2818 151.443C47.8814 150.733 48.1616 149.857 48.55 149.119C48.9384 148.382 49.4469 147.688 49.4589 146.871C49.4341 146.607 49.4341 146.342 49.4589 146.078C49.5851 145.705 49.7852 145.361 50.0474 145.067C50.384 144.528 50.6034 143.925 50.6916 143.298C50.7799 142.67 50.735 142.031 50.5599 141.422C50.1977 140.207 49.6037 139.072 48.8103 138.079C46.7043 135.224 43.7415 132.813 42.5683 129.454Z" fill="#454B69"/>
<path opacity="0.1" d="M61.5423 127.094L63.1759 128.014C62.6751 128.244 62.1618 128.447 61.6384 128.621C57.9549 129.846 59.2682 131.548 55.3845 131.5C52.738 131.472 49.7191 131.27 47.8654 133.142C46.9925 134.022 46.5521 135.228 46.1357 136.394C45.9435 136.925 45.7554 137.456 45.5672 137.98C44.7424 136.842 43.8976 135.708 43.0448 134.589C42.3521 133.685 41.6395 132.769 41.2911 131.686C40.9117 130.483 41.0135 129.181 41.5754 128.05C42.042 127.263 42.5779 126.519 43.1769 125.825C43.7438 124.975 44.3587 124.156 45.0187 123.374C45.3518 122.985 45.7606 122.666 46.2207 122.437C46.6809 122.207 47.183 122.071 47.6972 122.038C48.2938 122.038 48.9904 122.205 49.4028 121.78C49.555 121.63 49.635 121.427 49.8032 121.281C50.2396 120.884 50.9563 121.15 51.4808 121.443L61.5423 127.094Z" fill="black"/>
<path d="M71.2876 96.785C71.2337 96.31 71.1152 95.8445 70.9352 95.401C70.7626 95.0593 70.543 94.743 70.2826 94.4611C69.4339 93.5138 68.3937 92.7535 67.2295 92.2295C66.0653 91.7055 64.8029 91.4296 63.5242 91.4195C63.3016 91.4052 63.0786 91.4404 62.8716 91.5226C62.82 91.5455 62.7715 91.5748 62.7275 91.6099C60.8817 90.3765 58.7237 89.167 56.7218 88.6872C55.3329 88.3643 53.8854 88.3834 52.5058 88.7427C50.8282 89.2424 50.2436 90.5669 49.5309 92.0144C48.3845 94.342 46.6407 96.3304 44.4742 97.7804C43.0808 98.7123 41.4273 99.5133 40.7586 101.04C40.134 102.464 40.5584 104.098 40.7066 105.644C40.88 107.734 40.5297 109.834 39.6866 111.757C38.8435 113.68 37.5339 115.367 35.874 116.669C33.9682 118.132 31.4258 119.353 31.0214 121.705C30.7331 123.378 31.682 124.985 32.3987 126.527C33.9161 129.787 34.4366 133.768 32.6549 136.893C32.1465 137.782 31.4538 138.595 31.1936 139.578C30.7171 141.327 31.7301 143.226 33.2395 144.242C34.7489 145.257 36.6507 145.534 38.4765 145.526C39.8057 145.526 41.2431 145.328 42.184 144.404C42.7687 143.737 43.1942 142.948 43.4292 142.096C44.1979 139.942 44.968 137.788 45.7394 135.636C46.1397 134.47 46.5962 133.257 47.469 132.384C49.3187 130.513 52.3416 130.711 54.9841 130.743C58.8718 130.79 57.5586 129.093 61.238 127.864C63.4001 127.142 65.7503 125.912 66.2548 123.708C66.7593 121.503 65.2619 119.504 63.9526 117.72C62.9703 116.398 62.0441 115.03 61.174 113.615C60.3212 112.251 59.5084 110.811 59.2722 109.225C58.8718 106.588 65.3379 105.117 66.3068 102.63C66.5834 101.929 66.816 101.211 67.0035 100.481C67.4679 100.445 67.8964 100.402 68.2046 100.39C69.4418 100.334 70.8311 99.8544 71.2555 98.7044C71.4284 98.0773 71.4394 97.4173 71.2876 96.785Z" fill="#3F3D56"/>
<g opacity="0.1">
<path opacity="0.1" d="M60.4172 90.6462C60.6253 90.5678 60.8477 90.534 61.0699 90.5471H61.162C59.7962 89.6943 58.3127 89.0424 56.7578 88.6118L56.3854 88.5365C57.7485 89.1578 59.0558 89.8927 60.2931 90.7335C60.3318 90.7008 60.3734 90.6716 60.4172 90.6462Z" fill="black"/>
<path opacity="0.1" d="M71.2876 96.7097C71.2337 96.2347 71.1152 95.7691 70.9352 95.3257C70.7637 94.9834 70.5439 94.6669 70.2826 94.3858C68.9136 92.8587 67.064 91.8344 65.0336 91.479C66.0992 91.9922 67.0517 92.7092 67.8363 93.5887C68.0992 93.8671 68.3191 94.1825 68.4889 94.5246C68.6722 94.9684 68.7908 95.4357 68.8412 95.9126C68.9957 96.5442 68.9875 97.2042 68.8172 97.8319C68.3968 98.982 67.0035 99.4618 65.7703 99.5134C65.4701 99.5134 65.0376 99.5728 64.5692 99.6046C64.3823 100.336 64.1496 101.055 63.8725 101.758C62.9036 104.24 56.4495 105.724 56.8419 108.353C57.0741 109.939 57.8909 111.379 58.7397 112.743C59.5885 114.107 60.5414 115.519 61.5183 116.847C62.8275 118.632 64.321 120.682 63.8205 122.835C63.32 124.989 60.9698 126.269 58.8077 126.991C55.1242 128.221 56.4375 129.918 52.5538 129.87C49.9073 129.838 46.8844 129.64 45.0347 131.512C44.1619 132.392 43.7214 133.598 43.305 134.764L40.9949 141.224C40.7591 142.075 40.3351 142.863 39.7537 143.532C38.8088 144.456 37.3714 144.646 36.0462 144.65C35.2914 144.658 34.5372 144.602 33.792 144.484C35.2014 145.241 36.8789 145.459 38.4965 145.451C39.8257 145.451 41.2631 145.253 42.204 144.329C42.7887 143.662 43.2143 142.873 43.4492 142.021C44.2179 139.869 44.988 137.716 45.7594 135.561C46.1597 134.395 46.6162 133.182 47.489 132.309C49.3388 130.437 52.3616 130.636 55.0041 130.667C58.8918 130.715 57.5786 129.018 61.2581 127.788C63.4201 127.067 65.7703 125.837 66.2748 123.632C66.7793 121.427 65.2819 119.429 63.9726 117.644C62.9904 116.322 62.0642 114.954 61.194 113.54C60.3412 112.176 59.5284 110.736 59.2922 109.15C58.8918 106.513 65.3579 105.041 66.3269 102.555C66.6034 101.853 66.836 101.136 67.0235 100.406C67.488 100.37 67.9164 100.326 68.2247 100.314C69.4618 100.259 70.8512 99.7791 71.2756 98.629C71.4419 98.0003 71.446 97.3403 71.2876 96.7097Z" fill="black"/>
</g>
</g>
<defs>
<linearGradient id="paint0_linear" x1="216.525" y1="250.37" x2="216.525" y2="38.8552" gradientUnits="userSpaceOnUse">
<stop stop-color="#808080" stop-opacity="0.25"/>
<stop offset="0.54" stop-color="#808080" stop-opacity="0.12"/>
<stop offset="1" stop-color="#808080" stop-opacity="0.1"/>
</linearGradient>
<linearGradient id="paint1_linear" x1="-1767.59" y1="834.62" x2="-1756.89" y2="834.62" gradientUnits="userSpaceOnUse">
<stop stop-color="#808080" stop-opacity="0.25"/>
<stop offset="0.54" stop-color="#808080" stop-opacity="0.12"/>
<stop offset="1" stop-color="#808080" stop-opacity="0.1"/>
</linearGradient>
<linearGradient id="paint2_linear" x1="68953.1" y1="159294" x2="68953.1" y2="58701.4" gradientUnits="userSpaceOnUse">
<stop stop-color="#808080" stop-opacity="0.25"/>
<stop offset="0.54" stop-color="#808080" stop-opacity="0.12"/>
<stop offset="1" stop-color="#808080" stop-opacity="0.1"/>
</linearGradient>
<clipPath id="clip0">
<rect width="422" height="299" fill="white"/>
</clipPath>
</defs>
</svg>
