<svg width="421" height="195" viewBox="0 0 421 195" fill="none" xmlns="http://www.w3.org/2000/svg">
<path d="M22.48 117.72H34.8L56.32 175H44.4L39.68 161.32H17.6L12.88 175H0.96L22.48 117.72ZM36.16 151.4L31.04 137.08L28.96 130.12H28.32L26.24 137.08L21.12 151.4H36.16ZM63.0256 117.72H73.6656L91.1856 148.04H91.8256L109.346 117.72H120.066V175H109.346V146.76L109.986 137.16H109.346L94.7856 162.84H88.3056L73.6656 137.16H73.0256L73.6656 146.76V175H63.0256V117.72ZM146.099 148.36L126.819 117.72H139.699L151.139 136.68H151.779L162.819 117.72H175.859L156.899 148.36V175H146.099V148.36ZM196.935 164.12L225.975 127.96H198.215V117.72H238.535V128.6L209.815 164.76H238.855V175H196.935V164.12ZM247.791 117.72H258.591V140.6H282.671V117.72H293.471V175H282.671V150.84H258.591V175H247.791V117.72ZM321.699 117.72H334.019L355.539 175H343.619L338.899 161.32H316.819L312.099 175H300.179L321.699 117.72ZM335.379 151.4L330.259 137.08L328.179 130.12H327.539L325.459 137.08L320.339 151.4H335.379ZM387.802 176.28C383.535 176.28 379.562 175.507 375.882 173.96C372.255 172.413 369.109 170.307 366.442 167.64C363.775 164.92 361.669 161.747 360.122 158.12C358.629 154.44 357.882 150.52 357.882 146.36C357.882 142.2 358.629 138.307 360.122 134.68C361.669 131 363.775 127.827 366.442 125.16C369.109 122.44 372.255 120.307 375.882 118.76C379.562 117.213 383.535 116.44 387.802 116.44C392.069 116.44 396.015 117.213 399.642 118.76C403.322 120.307 406.495 122.44 409.162 125.16C411.829 127.827 413.909 131 415.402 134.68C416.949 138.307 417.722 142.2 417.722 146.36C417.722 150.52 416.949 154.44 415.402 158.12C413.909 161.747 411.829 164.92 409.162 167.64C406.495 170.307 403.322 172.413 399.642 173.96C396.015 175.507 392.069 176.28 387.802 176.28ZM387.802 166.04C390.469 166.04 392.949 165.56 395.242 164.6C397.589 163.64 399.615 162.307 401.322 160.6C403.082 158.893 404.442 156.84 405.402 154.44C406.415 151.987 406.922 149.293 406.922 146.36C406.922 143.427 406.415 140.76 405.402 138.36C404.442 135.907 403.082 133.827 401.322 132.12C399.615 130.413 397.589 129.08 395.242 128.12C392.949 127.16 390.469 126.68 387.802 126.68C385.135 126.68 382.629 127.16 380.282 128.12C377.989 129.08 375.962 130.413 374.202 132.12C372.495 133.827 371.135 135.907 370.122 138.36C369.162 140.76 368.682 143.427 368.682 146.36C368.682 149.293 369.162 151.987 370.122 154.44C371.135 156.84 372.495 158.893 374.202 160.6C375.962 162.307 377.989 163.64 380.282 164.6C382.629 165.56 385.135 166.04 387.802 166.04Z" fill="#87C0CD"/>
<path d="M125.12 77H117.76V19.72H125.12V44.28H153.76V19.72H161.12V77H153.76V51.16H125.12V77ZM179.964 77H172.604V19.72H179.964V77ZM216.448 77H209.088V19.72H216.448V77ZM229.514 37.16L226.074 34.92L230.074 28.84C228.954 28.6267 227.994 28.0667 227.194 27.16C226.448 26.2533 226.074 25.16 226.074 23.88C226.074 22.3333 226.608 21.0533 227.674 20.04C228.741 18.9733 230.021 18.44 231.514 18.44C233.061 18.44 234.341 18.9733 235.354 20.04C236.421 21.0533 236.954 22.3333 236.954 23.88C236.954 25.3733 236.394 27 235.274 28.76L229.514 37.16ZM253.948 77H246.588V19.72H253.948L273.868 54.6H274.188L294.108 19.72H301.468V77H294.108V43L294.428 33.4H294.108L276.188 64.84H271.868L253.948 33.4H253.628L253.948 43V77Z" fill="black"/>
</svg>
