<svg width="349" height="71" viewBox="0 0 349 71" fill="none" xmlns="http://www.w3.org/2000/svg">
<rect x="40" width="269" height="71" rx="10" fill="#87C0CD"/>
<path d="M101.172 23.224H106.032V33.52H116.868V23.224H121.728V49H116.868V38.128H106.032V49H101.172V23.224ZM138.759 49.576C136.839 49.576 135.051 49.228 133.395 48.532C131.763 47.836 130.347 46.888 129.147 45.688C127.947 44.464 126.999 43.036 126.303 41.404C125.631 39.748 125.295 37.984 125.295 36.112C125.295 34.24 125.631 32.488 126.303 30.856C126.999 29.2 127.947 27.772 129.147 26.572C130.347 25.348 131.763 24.388 133.395 23.692C135.051 22.996 136.839 22.648 138.759 22.648C140.679 22.648 142.455 22.996 144.087 23.692C145.743 24.388 147.171 25.348 148.371 26.572C149.571 27.772 150.507 29.2 151.179 30.856C151.875 32.488 152.223 34.24 152.223 36.112C152.223 37.984 151.875 39.748 151.179 41.404C150.507 43.036 149.571 44.464 148.371 45.688C147.171 46.888 145.743 47.836 144.087 48.532C142.455 49.228 140.679 49.576 138.759 49.576ZM138.759 44.968C139.959 44.968 141.075 44.752 142.107 44.32C143.163 43.888 144.075 43.288 144.843 42.52C145.635 41.752 146.247 40.828 146.679 39.748C147.135 38.644 147.363 37.432 147.363 36.112C147.363 34.792 147.135 33.592 146.679 32.512C146.247 31.408 145.635 30.472 144.843 29.704C144.075 28.936 143.163 28.336 142.107 27.904C141.075 27.472 139.959 27.256 138.759 27.256C137.559 27.256 136.431 27.472 135.375 27.904C134.343 28.336 133.431 28.936 132.639 29.704C131.871 30.472 131.259 31.408 130.803 32.512C130.371 33.592 130.155 34.792 130.155 36.112C130.155 37.432 130.371 38.644 130.803 39.748C131.259 40.828 131.871 41.752 132.639 42.52C133.431 43.288 134.343 43.888 135.375 44.32C136.431 44.752 137.559 44.968 138.759 44.968ZM156.156 23.224H166.236C167.34 23.224 168.372 23.404 169.332 23.764C170.292 24.1 171.12 24.58 171.816 25.204C172.536 25.804 173.1 26.512 173.508 27.328C173.916 28.144 174.12 29.02 174.12 29.956C174.12 31.324 173.784 32.476 173.112 33.412C172.464 34.324 171.648 35.02 170.664 35.5V35.788C171.984 36.268 173.04 37.024 173.832 38.056C174.648 39.064 175.056 40.324 175.056 41.836C175.056 42.94 174.828 43.936 174.372 44.824C173.94 45.688 173.34 46.432 172.572 47.056C171.804 47.68 170.904 48.16 169.872 48.496C168.864 48.832 167.772 49 166.596 49H156.156V23.224ZM165.876 33.736C167.004 33.736 167.868 33.436 168.468 32.836C169.092 32.212 169.404 31.48 169.404 30.64C169.404 29.8 169.104 29.08 168.504 28.48C167.904 27.88 167.076 27.58 166.02 27.58H161.016V33.736H165.876ZM166.416 44.536C167.64 44.536 168.576 44.236 169.224 43.636C169.872 43.012 170.196 42.22 170.196 41.26C170.196 40.3 169.86 39.508 169.188 38.884C168.54 38.236 167.568 37.912 166.272 37.912H161.016V44.536H166.416ZM178.797 23.224H188.877C189.981 23.224 191.013 23.404 191.973 23.764C192.933 24.1 193.761 24.58 194.457 25.204C195.177 25.804 195.741 26.512 196.149 27.328C196.557 28.144 196.761 29.02 196.761 29.956C196.761 31.324 196.425 32.476 195.753 33.412C195.105 34.324 194.289 35.02 193.305 35.5V35.788C194.625 36.268 195.681 37.024 196.473 38.056C197.289 39.064 197.697 40.324 197.697 41.836C197.697 42.94 197.469 43.936 197.013 44.824C196.581 45.688 195.981 46.432 195.213 47.056C194.445 47.68 193.545 48.16 192.513 48.496C191.505 48.832 190.413 49 189.237 49H178.797V23.224ZM188.517 33.736C189.645 33.736 190.509 33.436 191.109 32.836C191.733 32.212 192.045 31.48 192.045 30.64C192.045 29.8 191.745 29.08 191.145 28.48C190.545 27.88 189.717 27.58 188.661 27.58H183.657V33.736H188.517ZM189.057 44.536C190.281 44.536 191.217 44.236 191.865 43.636C192.513 43.012 192.837 42.22 192.837 41.26C192.837 40.3 192.501 39.508 191.829 38.884C191.181 38.236 190.209 37.912 188.913 37.912H183.657V44.536H189.057ZM201.438 23.224H206.298V49H201.438V23.224ZM216.352 27.832V33.808H226.684V38.416H216.352V44.392H227.836V49H211.492V23.224H227.836V27.832H216.352ZM240.189 49.576C239.085 49.576 238.029 49.42 237.021 49.108C236.013 48.796 235.089 48.328 234.249 47.704C233.409 47.08 232.677 46.324 232.053 45.436C231.429 44.524 230.937 43.468 230.577 42.268L235.149 40.468C235.485 41.764 236.073 42.844 236.913 43.708C237.753 44.548 238.857 44.968 240.225 44.968C240.729 44.968 241.209 44.908 241.665 44.788C242.145 44.644 242.565 44.452 242.925 44.212C243.309 43.948 243.609 43.624 243.825 43.24C244.041 42.856 244.149 42.412 244.149 41.908C244.149 41.428 244.065 40.996 243.897 40.612C243.729 40.228 243.441 39.868 243.033 39.532C242.649 39.196 242.133 38.872 241.485 38.56C240.861 38.248 240.081 37.924 239.145 37.588L237.561 37.012C236.865 36.772 236.157 36.448 235.437 36.04C234.741 35.632 234.105 35.14 233.529 34.564C232.953 33.988 232.473 33.316 232.089 32.548C231.729 31.756 231.549 30.868 231.549 29.884C231.549 28.876 231.741 27.94 232.125 27.076C232.533 26.188 233.097 25.42 233.817 24.772C234.561 24.1 235.437 23.584 236.445 23.224C237.477 22.84 238.617 22.648 239.865 22.648C241.161 22.648 242.277 22.828 243.213 23.188C244.173 23.524 244.977 23.968 245.625 24.52C246.297 25.048 246.837 25.636 247.245 26.284C247.653 26.932 247.953 27.544 248.145 28.12L243.861 29.92C243.621 29.2 243.177 28.552 242.529 27.976C241.905 27.4 241.041 27.112 239.937 27.112C238.881 27.112 238.005 27.364 237.309 27.868C236.613 28.348 236.265 28.984 236.265 29.776C236.265 30.544 236.601 31.204 237.273 31.756C237.945 32.284 239.013 32.8 240.477 33.304L242.097 33.844C243.129 34.204 244.065 34.624 244.905 35.104C245.769 35.56 246.501 36.112 247.101 36.76C247.725 37.408 248.193 38.152 248.505 38.992C248.841 39.808 249.009 40.756 249.009 41.836C249.009 43.18 248.733 44.344 248.181 45.328C247.653 46.288 246.969 47.08 246.129 47.704C245.289 48.328 244.341 48.796 243.285 49.108C242.229 49.42 241.197 49.576 240.189 49.576Z" fill="white"/>
</svg>
