<svg width="349" height="71" viewBox="0 0 349 71" fill="none" xmlns="http://www.w3.org/2000/svg">
<rect x="40" width="269" height="71" rx="10" fill="#78CDEB"/>
<path d="M72.2385 23.224H77.0265L84.9105 36.868H85.1985L93.0825 23.224H97.9065V49H93.0825V36.292L93.3705 31.972H93.0825L86.5305 43.528H83.6145L77.0265 31.972H76.7385L77.0265 36.292V49H72.2385V23.224ZM110.63 23.224H116.174L125.858 49H120.494L118.37 42.844H108.434L106.31 49H100.946L110.63 23.224ZM116.786 38.38L114.482 31.936L113.546 28.804H113.258L112.322 31.936L110.018 38.38H116.786ZM128.875 23.224H138.271C139.567 23.224 140.743 23.428 141.799 23.836C142.855 24.244 143.755 24.808 144.499 25.528C145.267 26.248 145.855 27.112 146.263 28.12C146.671 29.104 146.875 30.184 146.875 31.36C146.875 32.224 146.731 33.04 146.443 33.808C146.155 34.552 145.759 35.236 145.255 35.86C144.751 36.46 144.163 37 143.491 37.48C142.819 37.936 142.111 38.296 141.367 38.56L141.331 38.812L148.243 48.712V49H142.663L136.003 39.316H133.735V49H128.875V23.224ZM138.235 34.852C139.339 34.852 140.239 34.516 140.935 33.844C141.655 33.172 142.015 32.32 142.015 31.288C142.015 30.832 141.931 30.388 141.763 29.956C141.619 29.524 141.391 29.14 141.079 28.804C140.767 28.468 140.371 28.204 139.891 28.012C139.435 27.796 138.907 27.688 138.307 27.688H133.735V34.852H138.235ZM151.199 23.224H156.059V34.276H156.347L165.779 23.224H171.647V23.512L162.323 34.168L172.619 48.712V49H166.679L159.011 38.02L156.059 41.44V49H151.199V23.224ZM180.141 27.832V33.808H190.473V38.416H180.141V44.392H191.625V49H175.281V23.224H191.625V27.832H180.141ZM201.566 49V27.832H194.366V23.224H213.626V27.832H206.426V49H201.566ZM217.082 23.224H221.942V49H217.082V23.224ZM227.137 23.224H232.789L243.157 40.504H243.445L243.157 35.536V23.224H247.981V49H242.869L231.925 30.748H231.637L231.925 35.716V49H227.137V23.224ZM265.041 34.852H277.677C277.749 35.14 277.809 35.488 277.857 35.896C277.905 36.304 277.929 36.712 277.929 37.12C277.929 38.776 277.677 40.336 277.173 41.8C276.669 43.264 275.877 44.572 274.797 45.724C273.645 46.948 272.265 47.896 270.657 48.568C269.049 49.24 267.213 49.576 265.149 49.576C263.277 49.576 261.513 49.24 259.857 48.568C258.201 47.896 256.761 46.96 255.537 45.76C254.313 44.56 253.341 43.144 252.621 41.512C251.901 39.856 251.541 38.056 251.541 36.112C251.541 34.168 251.901 32.38 252.621 30.748C253.341 29.092 254.313 27.664 255.537 26.464C256.761 25.264 258.201 24.328 259.857 23.656C261.513 22.984 263.277 22.648 265.149 22.648C267.237 22.648 269.097 23.008 270.729 23.728C272.385 24.448 273.801 25.444 274.977 26.716L271.629 29.992C270.789 29.104 269.853 28.432 268.821 27.976C267.789 27.496 266.553 27.256 265.113 27.256C263.937 27.256 262.821 27.472 261.765 27.904C260.709 28.312 259.785 28.9 258.993 29.668C258.201 30.436 257.565 31.372 257.085 32.476C256.629 33.556 256.401 34.768 256.401 36.112C256.401 37.456 256.629 38.68 257.085 39.784C257.565 40.864 258.201 41.788 258.993 42.556C259.809 43.324 260.745 43.924 261.801 44.356C262.857 44.764 263.985 44.968 265.185 44.968C266.553 44.968 267.705 44.776 268.641 44.392C269.601 43.984 270.417 43.468 271.089 42.844C271.569 42.412 271.977 41.872 272.313 41.224C272.673 40.552 272.949 39.808 273.141 38.992H265.041V34.852Z" fill="white"/>
</svg>
