<svg width="349" height="71" viewBox="0 0 349 71" fill="none" xmlns="http://www.w3.org/2000/svg">
<rect x="40" width="269" height="71" rx="10" fill="#87C0CD"/>
<path d="M131.539 49.576C130.435 49.576 129.379 49.42 128.371 49.108C127.363 48.796 126.439 48.328 125.599 47.704C124.759 47.08 124.027 46.324 123.403 45.436C122.779 44.524 122.287 43.468 121.927 42.268L126.499 40.468C126.835 41.764 127.423 42.844 128.263 43.708C129.103 44.548 130.207 44.968 131.575 44.968C132.079 44.968 132.559 44.908 133.015 44.788C133.495 44.644 133.915 44.452 134.275 44.212C134.659 43.948 134.959 43.624 135.175 43.24C135.391 42.856 135.499 42.412 135.499 41.908C135.499 41.428 135.415 40.996 135.247 40.612C135.079 40.228 134.791 39.868 134.383 39.532C133.999 39.196 133.483 38.872 132.835 38.56C132.211 38.248 131.431 37.924 130.495 37.588L128.911 37.012C128.215 36.772 127.507 36.448 126.787 36.04C126.091 35.632 125.455 35.14 124.879 34.564C124.303 33.988 123.823 33.316 123.438 32.548C123.079 31.756 122.899 30.868 122.899 29.884C122.899 28.876 123.091 27.94 123.475 27.076C123.883 26.188 124.447 25.42 125.167 24.772C125.911 24.1 126.787 23.584 127.795 23.224C128.827 22.84 129.967 22.648 131.215 22.648C132.511 22.648 133.627 22.828 134.563 23.188C135.523 23.524 136.327 23.968 136.975 24.52C137.647 25.048 138.187 25.636 138.595 26.284C139.003 26.932 139.303 27.544 139.495 28.12L135.211 29.92C134.971 29.2 134.527 28.552 133.879 27.976C133.255 27.4 132.391 27.112 131.287 27.112C130.231 27.112 129.355 27.364 128.659 27.868C127.963 28.348 127.615 28.984 127.615 29.776C127.615 30.544 127.951 31.204 128.623 31.756C129.295 32.284 130.363 32.8 131.827 33.304L133.447 33.844C134.479 34.204 135.415 34.624 136.255 35.104C137.119 35.56 137.851 36.112 138.451 36.76C139.075 37.408 139.543 38.152 139.855 38.992C140.191 39.808 140.359 40.756 140.359 41.836C140.359 43.18 140.083 44.344 139.531 45.328C139.003 46.288 138.319 47.08 137.479 47.704C136.639 48.328 135.691 48.796 134.635 49.108C133.579 49.42 132.547 49.576 131.539 49.576ZM151.534 23.224H157.078L166.762 49H161.398L159.274 42.844H149.338L147.214 49H141.85L151.534 23.224ZM157.69 38.38L155.386 31.936L154.45 28.804H154.162L153.226 31.936L150.922 38.38H157.69ZM169.78 23.224H174.64V44.392H185.548V49H169.78V23.224ZM193.87 27.832V33.808H204.202V38.416H193.87V44.392H205.354V49H189.01V23.224H205.354V27.832H193.87ZM217.706 49.576C216.602 49.576 215.546 49.42 214.538 49.108C213.53 48.796 212.606 48.328 211.766 47.704C210.926 47.08 210.194 46.324 209.57 45.436C208.946 44.524 208.454 43.468 208.094 42.268L212.666 40.468C213.002 41.764 213.59 42.844 214.43 43.708C215.27 44.548 216.374 44.968 217.742 44.968C218.246 44.968 218.726 44.908 219.182 44.788C219.662 44.644 220.082 44.452 220.442 44.212C220.826 43.948 221.126 43.624 221.342 43.24C221.558 42.856 221.666 42.412 221.666 41.908C221.666 41.428 221.582 40.996 221.414 40.612C221.246 40.228 220.958 39.868 220.55 39.532C220.166 39.196 219.65 38.872 219.002 38.56C218.378 38.248 217.598 37.924 216.662 37.588L215.078 37.012C214.382 36.772 213.674 36.448 212.954 36.04C212.258 35.632 211.622 35.14 211.046 34.564C210.47 33.988 209.99 33.316 209.606 32.548C209.246 31.756 209.066 30.868 209.066 29.884C209.066 28.876 209.258 27.94 209.642 27.076C210.05 26.188 210.614 25.42 211.334 24.772C212.078 24.1 212.954 23.584 213.962 23.224C214.994 22.84 216.134 22.648 217.382 22.648C218.678 22.648 219.794 22.828 220.73 23.188C221.69 23.524 222.494 23.968 223.142 24.52C223.814 25.048 224.354 25.636 224.762 26.284C225.17 26.932 225.47 27.544 225.662 28.12L221.378 29.92C221.138 29.2 220.694 28.552 220.046 27.976C219.422 27.4 218.558 27.112 217.454 27.112C216.398 27.112 215.522 27.364 214.826 27.868C214.13 28.348 213.782 28.984 213.782 29.776C213.782 30.544 214.118 31.204 214.79 31.756C215.462 32.284 216.53 32.8 217.994 33.304L219.614 33.844C220.646 34.204 221.582 34.624 222.422 35.104C223.286 35.56 224.018 36.112 224.618 36.76C225.242 37.408 225.71 38.152 226.022 38.992C226.358 39.808 226.526 40.756 226.526 41.836C226.526 43.18 226.25 44.344 225.698 45.328C225.17 46.288 224.486 47.08 223.646 47.704C222.806 48.328 221.858 48.796 220.802 49.108C219.746 49.42 218.714 49.576 217.706 49.576Z" fill="white"/>
</svg>
