<svg width="349" height="71" viewBox="0 0 349 71" fill="none" xmlns="http://www.w3.org/2000/svg">
<rect x="40" width="269" height="71" rx="10" fill="#78CDEB"/>
<path d="M95.2045 49.576C94.1005 49.576 93.0445 49.42 92.0365 49.108C91.0285 48.796 90.1045 48.328 89.2645 47.704C88.4245 47.08 87.6925 46.324 87.0685 45.436C86.4445 44.524 85.9525 43.468 85.5925 42.268L90.1645 40.468C90.5005 41.764 91.0885 42.844 91.9285 43.708C92.7685 44.548 93.8725 44.968 95.2405 44.968C95.7445 44.968 96.2245 44.908 96.6805 44.788C97.1605 44.644 97.5805 44.452 97.9405 44.212C98.3245 43.948 98.6245 43.624 98.8405 43.24C99.0565 42.856 99.1645 42.412 99.1645 41.908C99.1645 41.428 99.0805 40.996 98.9125 40.612C98.7445 40.228 98.4565 39.868 98.0485 39.532C97.6645 39.196 97.1485 38.872 96.5005 38.56C95.8765 38.248 95.0965 37.924 94.1605 37.588L92.5765 37.012C91.8805 36.772 91.1725 36.448 90.4525 36.04C89.7565 35.632 89.1205 35.14 88.5445 34.564C87.9685 33.988 87.4885 33.316 87.1045 32.548C86.7445 31.756 86.5645 30.868 86.5645 29.884C86.5645 28.876 86.7565 27.94 87.1405 27.076C87.5485 26.188 88.1125 25.42 88.8325 24.772C89.5765 24.1 90.4525 23.584 91.4605 23.224C92.4925 22.84 93.6325 22.648 94.8805 22.648C96.1765 22.648 97.2925 22.828 98.2285 23.188C99.1885 23.524 99.9925 23.968 100.641 24.52C101.313 25.048 101.853 25.636 102.261 26.284C102.669 26.932 102.969 27.544 103.161 28.12L98.8765 29.92C98.6365 29.2 98.1925 28.552 97.5445 27.976C96.9205 27.4 96.0565 27.112 94.9525 27.112C93.8965 27.112 93.0205 27.364 92.3245 27.868C91.6285 28.348 91.2805 28.984 91.2805 29.776C91.2805 30.544 91.6165 31.204 92.2885 31.756C92.9605 32.284 94.0285 32.8 95.4925 33.304L97.1125 33.844C98.1445 34.204 99.0805 34.624 99.9205 35.104C100.785 35.56 101.517 36.112 102.117 36.76C102.741 37.408 103.209 38.152 103.521 38.992C103.857 39.808 104.025 40.756 104.025 41.836C104.025 43.18 103.749 44.344 103.197 45.328C102.669 46.288 101.985 47.08 101.145 47.704C100.305 48.328 99.3565 48.796 98.3005 49.108C97.2445 49.42 96.2125 49.576 95.2045 49.576ZM113.148 49V27.832H105.948V23.224H125.208V27.832H118.008V49H113.148ZM128.664 23.224H138.06C139.356 23.224 140.532 23.428 141.588 23.836C142.644 24.244 143.544 24.808 144.288 25.528C145.056 26.248 145.644 27.112 146.052 28.12C146.46 29.104 146.664 30.184 146.664 31.36C146.664 32.224 146.52 33.04 146.232 33.808C145.944 34.552 145.548 35.236 145.044 35.86C144.54 36.46 143.952 37 143.28 37.48C142.608 37.936 141.9 38.296 141.156 38.56L141.12 38.812L148.032 48.712V49H142.452L135.792 39.316H133.524V49H128.664V23.224ZM138.024 34.852C139.128 34.852 140.028 34.516 140.724 33.844C141.444 33.172 141.804 32.32 141.804 31.288C141.804 30.832 141.72 30.388 141.552 29.956C141.408 29.524 141.18 29.14 140.868 28.804C140.556 28.468 140.16 28.204 139.68 28.012C139.224 27.796 138.696 27.688 138.096 27.688H133.524V34.852H138.024ZM158.512 23.224H164.056L173.74 49H168.376L166.252 42.844H156.316L154.192 49H148.828L158.512 23.224ZM164.668 38.38L162.364 31.936L161.428 28.804H161.14L160.204 31.936L157.9 38.38H164.668ZM179.875 49V27.832H172.675V23.224H191.935V27.832H184.735V49H179.875ZM200.251 27.832V33.808H210.583V38.416H200.251V44.392H211.735V49H195.391V23.224H211.735V27.832H200.251ZM227.74 34.852H240.376C240.448 35.14 240.508 35.488 240.556 35.896C240.604 36.304 240.628 36.712 240.628 37.12C240.628 38.776 240.376 40.336 239.872 41.8C239.368 43.264 238.576 44.572 237.496 45.724C236.344 46.948 234.964 47.896 233.356 48.568C231.748 49.24 229.912 49.576 227.848 49.576C225.976 49.576 224.212 49.24 222.556 48.568C220.9 47.896 219.46 46.96 218.236 45.76C217.012 44.56 216.04 43.144 215.32 41.512C214.6 39.856 214.24 38.056 214.24 36.112C214.24 34.168 214.6 32.38 215.32 30.748C216.04 29.092 217.012 27.664 218.236 26.464C219.46 25.264 220.9 24.328 222.556 23.656C224.212 22.984 225.976 22.648 227.848 22.648C229.936 22.648 231.796 23.008 233.428 23.728C235.084 24.448 236.5 25.444 237.676 26.716L234.328 29.992C233.488 29.104 232.552 28.432 231.52 27.976C230.488 27.496 229.252 27.256 227.812 27.256C226.636 27.256 225.52 27.472 224.464 27.904C223.408 28.312 222.484 28.9 221.692 29.668C220.9 30.436 220.264 31.372 219.784 32.476C219.328 33.556 219.1 34.768 219.1 36.112C219.1 37.456 219.328 38.68 219.784 39.784C220.264 40.864 220.9 41.788 221.692 42.556C222.508 43.324 223.444 43.924 224.5 44.356C225.556 44.764 226.684 44.968 227.884 44.968C229.252 44.968 230.404 44.776 231.34 44.392C232.3 43.984 233.116 43.468 233.788 42.844C234.268 42.412 234.676 41.872 235.012 41.224C235.372 40.552 235.648 39.808 235.84 38.992H227.74V34.852ZM250.458 37.012L241.782 23.224H247.578L252.726 31.756H253.014L257.982 23.224H263.85L255.318 37.012V49H250.458V37.012Z" fill="white"/>
</svg>
