<svg width="609" height="364" viewBox="0 0 609 364" fill="none" xmlns="http://www.w3.org/2000/svg">
<path d="M100.889 312.589L104.398 342.948C104.398 342.948 121.947 365.073 110.916 363.53C99.886 361.986 92.8667 363.858 92.8667 361.8C92.8667 359.742 92.6074 352.388 91.1032 352.388C89.599 352.388 88.3543 364 88.3543 364C88.3543 364 83.8419 363.65 83.3405 363.135C82.8391 362.62 82.3377 333.171 82.3377 333.171C82.3377 333.171 80.8336 324.424 83.8418 320.308C86.8501 316.191 86.3488 312.589 86.3488 312.589L100.889 312.589Z" fill="#2F2E41"/>
<path d="M21.0144 312.256L24.5241 342.614C24.5241 342.614 42.0724 364.74 31.042 363.196C20.0116 361.652 12.9923 363.524 12.9923 361.466C12.9923 359.408 12.733 352.054 11.2288 352.054C9.72466 352.054 8.47988 363.666 8.47988 363.666C8.47988 363.666 3.96745 363.316 3.46607 362.801C2.96469 362.287 2.46331 332.838 2.46331 332.838C2.46331 332.838 0.959177 324.09 3.96745 319.974C6.97573 315.857 6.47435 312.256 6.47435 312.256H21.0144Z" fill="#2F2E41"/>
<path d="M608.904 45.8234H182.625V326.003H608.904V45.8234Z" fill="#E6E6E6"/>
<path d="M596.715 80.9648H194.814V309.427H596.715V80.9648Z" fill="white"/>
<path d="M608.722 45.5753H182.443V64.1609H608.722V45.5753Z" fill="#78CDEB"/>
<path d="M195.901 58.522C197.754 58.522 199.257 56.9797 199.257 55.0773C199.257 53.1748 197.754 51.6326 195.901 51.6326C194.047 51.6326 192.544 53.1748 192.544 55.0773C192.544 56.9797 194.047 58.522 195.901 58.522Z" fill="white"/>
<path d="M208.641 58.522C210.495 58.522 211.998 56.9797 211.998 55.0773C211.998 53.1748 210.495 51.6326 208.641 51.6326C206.787 51.6326 205.285 53.1748 205.285 55.0773C205.285 56.9797 206.787 58.522 208.641 58.522Z" fill="white"/>
<path d="M221.382 58.522C223.236 58.522 224.738 56.9797 224.738 55.0773C224.738 53.1748 223.236 51.6326 221.382 51.6326C219.528 51.6326 218.025 53.1748 218.025 55.0773C218.025 56.9797 219.528 58.522 221.382 58.522Z" fill="white"/>
<path d="M482.995 102.363H352.149C351.87 102.326 351.614 102.185 351.428 101.967C351.242 101.75 351.14 101.471 351.14 101.182C351.14 100.893 351.242 100.613 351.428 100.396C351.614 100.178 351.87 100.038 352.149 100H482.995C483.274 100.038 483.531 100.178 483.717 100.396C483.902 100.613 484.005 100.893 484.005 101.182C484.005 101.471 483.902 101.75 483.717 101.967C483.531 102.185 483.274 102.326 482.995 102.363Z" fill="#CCCCCC"/>
<path d="M392.332 115.361H309.14C308.861 115.324 308.604 115.183 308.418 114.965C308.233 114.748 308.13 114.469 308.13 114.18C308.13 113.891 308.233 113.611 308.418 113.394C308.604 113.177 308.861 113.036 309.14 112.998H392.332C392.611 113.036 392.868 113.177 393.053 113.394C393.239 113.611 393.342 113.891 393.342 114.18C393.342 114.469 393.239 114.748 393.053 114.965C392.868 115.183 392.611 115.324 392.332 115.361Z" fill="#CCCCCC"/>
<path d="M482.995 115.598H399.803C399.524 115.56 399.267 115.419 399.082 115.202C398.896 114.984 398.793 114.705 398.793 114.416C398.793 114.127 398.896 113.848 399.082 113.63C399.267 113.413 399.524 113.272 399.803 113.234H482.995C483.274 113.272 483.531 113.413 483.717 113.63C483.902 113.848 484.005 114.127 484.005 114.416C484.005 114.705 483.902 114.984 483.717 115.202C483.531 115.419 483.274 115.56 482.995 115.598H482.995Z" fill="#CCCCCC"/>
<path d="M392.534 128.359H309.342C309.062 128.322 308.806 128.181 308.62 127.964C308.435 127.746 308.332 127.467 308.332 127.178C308.332 126.889 308.435 126.609 308.62 126.392C308.806 126.175 309.062 126.034 309.342 125.996H392.534C392.813 126.034 393.069 126.175 393.255 126.392C393.441 126.609 393.543 126.889 393.543 127.178C393.543 127.467 393.441 127.746 393.255 127.964C393.069 128.181 392.813 128.322 392.534 128.359Z" fill="#CCCCCC"/>
<path d="M392.736 141.358H309.544C309.264 141.32 309.008 141.179 308.822 140.962C308.636 140.744 308.534 140.465 308.534 140.176C308.534 139.887 308.636 139.608 308.822 139.39C309.008 139.173 309.264 139.032 309.544 138.994H392.736C393.015 139.032 393.271 139.173 393.457 139.39C393.643 139.608 393.745 139.887 393.745 140.176C393.745 140.465 393.643 140.744 393.457 140.962C393.271 141.179 393.015 141.32 392.736 141.358Z" fill="#CCCCCC"/>
<path d="M430.495 128.359H406.668C406.389 128.322 406.133 128.181 405.947 127.964C405.761 127.746 405.659 127.467 405.659 127.178C405.659 126.889 405.761 126.609 405.947 126.392C406.133 126.175 406.389 126.034 406.668 125.996H430.495C430.774 126.034 431.031 126.175 431.217 126.392C431.402 126.609 431.505 126.889 431.505 127.178C431.505 127.467 431.402 127.746 431.217 127.964C431.031 128.181 430.774 128.322 430.495 128.359Z" fill="#CCCCCC"/>
<path d="M430.495 141.121H406.668C406.389 141.083 406.133 140.943 405.947 140.725C405.761 140.508 405.659 140.229 405.659 139.94C405.659 139.65 405.761 139.371 405.947 139.154C406.133 138.936 406.389 138.796 406.668 138.758H430.495C430.774 138.796 431.031 138.936 431.217 139.154C431.402 139.371 431.505 139.65 431.505 139.94C431.505 140.229 431.402 140.508 431.217 140.725C431.031 140.943 430.774 141.083 430.495 141.121Z" fill="#CCCCCC"/>
<path d="M470.476 141.121H446.649C446.37 141.083 446.113 140.943 445.928 140.725C445.742 140.508 445.639 140.229 445.639 139.94C445.639 139.65 445.742 139.371 445.928 139.154C446.113 138.936 446.37 138.796 446.649 138.758H470.476C470.755 138.796 471.012 138.936 471.197 139.154C471.383 139.371 471.486 139.65 471.486 139.94C471.486 140.229 471.383 140.508 471.197 140.725C471.012 140.943 470.755 141.083 470.476 141.121Z" fill="#CCCCCC"/>
<path d="M332.361 102.363H308.534C308.255 102.326 307.998 102.185 307.812 101.967C307.627 101.75 307.524 101.471 307.524 101.182C307.524 100.893 307.627 100.613 307.812 100.396C307.998 100.178 308.255 100.038 308.534 100H332.361C332.64 100.038 332.896 100.178 333.082 100.396C333.268 100.613 333.37 100.893 333.37 101.182C333.37 101.471 333.268 101.75 333.082 101.967C332.896 102.185 332.64 102.326 332.361 102.363Z" fill="#CCCCCC"/>
<path d="M392.029 251.398H308.837C308.558 251.36 308.301 251.219 308.115 251.002C307.93 250.785 307.827 250.505 307.827 250.216C307.827 249.927 307.93 249.648 308.115 249.43C308.301 249.213 308.558 249.072 308.837 249.035H392.029C392.308 249.072 392.565 249.213 392.751 249.43C392.936 249.648 393.039 249.927 393.039 250.216C393.039 250.505 392.936 250.785 392.751 251.002C392.565 251.219 392.308 251.36 392.029 251.398H392.029Z" fill="#CCCCCC"/>
<path d="M391.625 277.394H308.433C308.154 277.356 307.897 277.216 307.712 276.998C307.526 276.781 307.424 276.501 307.424 276.212C307.424 275.923 307.526 275.644 307.712 275.427C307.897 275.209 308.154 275.068 308.433 275.031H391.625C391.905 275.068 392.161 275.209 392.347 275.427C392.532 275.644 392.635 275.923 392.635 276.212C392.635 276.501 392.532 276.781 392.347 276.998C392.161 277.216 391.905 277.356 391.625 277.394H391.625Z" fill="#CCCCCC"/>
<path d="M391.827 290.392H308.635C308.356 290.354 308.099 290.214 307.914 289.996C307.728 289.779 307.625 289.5 307.625 289.21C307.625 288.921 307.728 288.642 307.914 288.425C308.099 288.207 308.356 288.067 308.635 288.029H391.827C392.106 288.067 392.363 288.207 392.549 288.425C392.734 288.642 392.837 288.921 392.837 289.21C392.837 289.5 392.734 289.779 392.549 289.996C392.363 290.214 392.106 290.354 391.827 290.392H391.827Z" fill="#CCCCCC"/>
<path d="M427.366 277.63H403.539C403.259 277.593 403.003 277.452 402.817 277.235C402.631 277.017 402.529 276.738 402.529 276.449C402.529 276.16 402.631 275.88 402.817 275.663C403.003 275.446 403.259 275.305 403.539 275.267H427.366C427.645 275.305 427.901 275.446 428.087 275.663C428.273 275.88 428.375 276.16 428.375 276.449C428.375 276.738 428.273 277.017 428.087 277.235C427.901 277.452 427.645 277.593 427.366 277.63Z" fill="#CCCCCC"/>
<path d="M427.366 290.392H403.539C403.259 290.354 403.003 290.214 402.817 289.996C402.631 289.779 402.529 289.5 402.529 289.21C402.529 288.921 402.631 288.642 402.817 288.425C403.003 288.207 403.259 288.067 403.539 288.029H427.366C427.645 288.067 427.901 288.207 428.087 288.425C428.273 288.642 428.375 288.921 428.375 289.21C428.375 289.5 428.273 289.779 428.087 289.996C427.901 290.214 427.645 290.354 427.366 290.392Z" fill="#CCCCCC"/>
<path d="M467.346 277.63H443.519C443.24 277.593 442.983 277.452 442.798 277.235C442.612 277.017 442.51 276.738 442.51 276.449C442.51 276.16 442.612 275.88 442.798 275.663C442.983 275.446 443.24 275.305 443.519 275.267H467.346C467.625 275.305 467.882 275.446 468.067 275.663C468.253 275.88 468.356 276.16 468.356 276.449C468.356 276.738 468.253 277.017 468.067 277.235C467.882 277.452 467.625 277.593 467.346 277.63Z" fill="#CCCCCC"/>
<path d="M483.096 264.396H352.25C351.971 264.358 351.714 264.217 351.529 264C351.343 263.783 351.241 263.503 351.241 263.214C351.241 262.925 351.343 262.646 351.529 262.428C351.714 262.211 351.971 262.07 352.25 262.033H483.096C483.375 262.07 483.632 262.211 483.817 262.428C484.003 262.646 484.106 262.925 484.106 263.214C484.106 263.503 484.003 263.783 483.817 264C483.632 264.217 483.375 264.358 483.096 264.396Z" fill="#CCCCCC"/>
<path d="M332.462 264.396H308.635C308.356 264.358 308.099 264.217 307.914 264C307.728 263.783 307.625 263.503 307.625 263.214C307.625 262.925 307.728 262.646 307.914 262.428C308.099 262.211 308.356 262.07 308.635 262.033H332.462C332.741 262.07 332.998 262.211 333.183 262.428C333.369 262.646 333.472 262.925 333.472 263.214C333.472 263.503 333.369 263.783 333.183 264C332.998 264.217 332.741 264.358 332.462 264.396Z" fill="#CCCCCC"/>
<path d="M371.938 162.353L339.63 195.096L371.938 227.837L379.207 220.377L354.774 195.303L379.409 170.021L371.938 162.353Z" fill="#E6E6E6"/>
<path d="M419.592 162.353L451.899 195.096L419.592 227.837L412.322 220.377L436.755 195.303L412.12 170.021L419.592 162.353Z" fill="#E6E6E6"/>
<path d="M371.938 162.353L339.63 195.096L371.938 227.837L379.207 220.377L354.774 195.303L379.409 170.021L371.938 162.353Z" fill="#78CDEB"/>
<path d="M419.592 162.353L451.899 195.096L419.592 227.837L412.322 220.377L436.755 195.303L412.12 170.021L419.592 162.353Z" fill="#78CDEB"/>
<path d="M99.1828 286.239V322.103H89.1982L82.5425 284.532L99.1828 286.239Z" fill="#FFB9B9"/>
<path d="M20.1401 286.239V322.103H10.1563L3.49988 284.532L20.1401 286.239Z" fill="#FFB9B9"/>
<path d="M72.8116 21.8684C72.8116 21.8684 56.7674 10.0337 54.7619 15.6938C52.7564 21.3538 66.795 31.6448 66.795 31.6448L72.8116 21.8684Z" fill="#FFB9B9"/>
<path d="M15.9048 37.0476C15.9048 57.5085 24.4887 58.1442 38.4724 58.1442C52.4561 58.1442 66.5443 57.5085 66.5443 37.0476C66.5443 16.5868 55.2083 0 41.2246 0C27.2408 0 15.9048 16.5868 15.9048 37.0476Z" fill="#2F2E41"/>
<path d="M50.2494 36.7904C50.2494 36.7904 48.2439 52.2268 57.7701 53.2559C67.2963 54.285 26.6845 57.3723 26.6845 57.3723C26.6845 57.3723 37.2135 47.5959 31.6983 39.8776C26.1831 32.1594 50.2494 36.7904 50.2494 36.7904Z" fill="#FFB9B9"/>
<path d="M74.817 131.982C74.817 131.982 90.8612 178.806 91.864 189.097C92.8668 199.388 90.8612 234.378 90.8612 234.378C90.8612 234.378 105.401 294.833 102.393 295.348C99.3847 295.862 82.6319 298.302 82.1305 295.729C81.6291 293.156 79.8417 289.173 80.343 287.629C80.8444 286.086 78.8389 280.426 78.8389 277.338C78.8389 274.251 71.8087 258.047 72.3101 255.474C72.8115 252.902 63.7866 214.825 62.2825 211.737C60.7783 208.65 56.7673 187.039 56.7673 187.039C56.7673 187.039 34.2052 250.329 33.7038 251.872C33.2024 253.416 31.1969 255.989 32.1997 256.503C33.2024 257.018 30.6955 260.62 30.6955 260.62C30.6955 260.62 25.5001 281.969 25.5001 282.998C25.5001 284.028 26.5029 295.676 24.4974 296.19C22.4919 296.705 2.0064 296.672 1.00363 293.07C0.00086695 289.468 11.643 247.756 11.643 247.756C11.643 247.756 20.1665 221.514 17.6596 214.825C15.1527 208.136 20.1665 168.001 22.172 164.913C24.1776 161.826 24.679 143.302 24.679 143.302L74.817 131.982Z" fill="#2F2E41"/>
<path d="M41.4753 45.2804C50.3362 45.2804 57.5194 37.9085 57.5194 28.8148C57.5194 19.7211 50.3362 12.3492 41.4753 12.3492C32.6143 12.3492 25.4311 19.7211 25.4311 28.8148C25.4311 37.9085 32.6143 45.2804 41.4753 45.2804Z" fill="#FFB9B9"/>
<path d="M50.2493 49.6541C50.2493 49.6541 32.1996 50.1687 31.1968 48.625C30.1941 47.0814 5.12506 52.2269 5.12506 62.5179C5.12506 72.8089 19.6651 112.944 19.6651 112.944C19.6651 112.944 25.1803 141.759 23.6761 144.846C22.172 147.933 79.3294 138.157 77.8252 133.011C76.3211 127.866 67.7976 116.546 78.828 106.769C89.8584 96.9927 94.3708 86.7017 94.3708 86.7017L81.3349 51.1977C81.3349 51.1977 68.299 49.1395 65.2907 51.1977C62.2824 53.2559 50.2493 49.6541 50.2493 49.6541Z" fill="#78CDEB"/>
<path d="M90.8612 89.2745L94.3709 86.7017C94.3709 86.7017 126.961 51.7123 118.437 45.0232C109.914 38.334 97.3791 32.1594 91.3626 31.6449C85.346 31.1303 80.3322 26.4994 80.3322 26.4994C80.3322 26.4994 73.8143 14.6647 68.8005 22.383C63.7867 30.1012 58.2715 32.674 65.2908 35.2467C72.3101 37.8195 76.8226 36.7904 80.3322 39.3631C83.8419 41.9359 97.3791 46.0523 91.3626 47.5959C87.9125 48.4542 84.5536 49.6607 81.335 51.1978L74.817 63.0324L90.8612 89.2745Z" fill="#78CDEB"/>
<path d="M34.2053 176.233C34.2053 176.233 47.2411 195.786 37.7149 194.757C28.1887 193.728 23.6763 180.35 23.6763 180.35L34.2053 176.233Z" fill="#FFB9B9"/>
<path d="M8.63488 59.9451L5.12522 62.5179C5.12522 62.5179 -6.40653 127.351 5.12522 144.331C16.657 161.312 17.6597 160.282 17.6597 160.282C17.6597 160.282 19.6653 158.739 20.668 169.03C21.6708 179.321 20.1666 183.437 23.1749 183.437C26.1832 183.437 39.7205 180.35 38.7177 177.777C37.715 175.204 31.197 160.282 30.6956 156.681C30.1943 153.079 27.6874 144.846 26.6846 140.215C25.6818 135.584 31.197 133.011 28.6901 123.235C26.1832 113.458 22.6736 95.9636 22.6736 92.3618C22.6736 88.7599 8.63488 59.9451 8.63488 59.9451Z" fill="#78CDEB"/>
<path d="M25.9324 14.1501C25.9324 19.6916 33.3401 24.1839 42.478 24.1839C51.6158 24.1839 60.0263 27.1526 60.0263 21.6111C60.0263 16.0696 51.6158 4.11641 42.478 4.11641C33.3401 4.11641 25.9324 8.60867 25.9324 14.1501Z" fill="#2F2E41"/>
<path d="M66.394 40.5203C66.394 40.5203 67.0694 59.1733 49.0079 58.1442C30.9463 57.1151 51.4487 42.1999 51.4487 42.1999L66.394 40.5203Z" fill="#2F2E41"/>
</svg>
