<svg width="349" height="71" viewBox="0 0 349 71" fill="none" xmlns="http://www.w3.org/2000/svg">
<rect x="40" width="269" height="71" rx="10" fill="#78CDEB"/>
<path d="M135.929 49V27.832H128.729V23.224H147.989V27.832H140.789V49H135.929ZM156.306 27.832V33.808H166.638V38.416H156.306V44.392H167.79V49H151.446V23.224H167.79V27.832H156.306ZM194.091 44.86C192.819 46.396 191.319 47.572 189.591 48.388C187.863 49.18 185.931 49.576 183.795 49.576C181.875 49.576 180.087 49.228 178.431 48.532C176.799 47.836 175.383 46.888 174.183 45.688C172.983 44.488 172.035 43.072 171.339 41.44C170.643 39.784 170.295 38.008 170.295 36.112C170.295 34.216 170.643 32.452 171.339 30.82C172.035 29.164 172.983 27.736 174.183 26.536C175.383 25.336 176.799 24.388 178.431 23.692C180.087 22.996 181.875 22.648 183.795 22.648C185.859 22.648 187.671 23.008 189.231 23.728C190.815 24.448 192.219 25.492 193.443 26.86L190.023 30.172C189.255 29.284 188.367 28.576 187.359 28.048C186.375 27.52 185.199 27.256 183.831 27.256C182.631 27.256 181.503 27.472 180.447 27.904C179.391 28.312 178.467 28.9 177.675 29.668C176.907 30.436 176.295 31.372 175.839 32.476C175.383 33.556 175.155 34.768 175.155 36.112C175.155 37.456 175.383 38.68 175.839 39.784C176.295 40.864 176.907 41.788 177.675 42.556C178.467 43.324 179.391 43.924 180.447 44.356C181.503 44.764 182.631 44.968 183.831 44.968C185.271 44.968 186.543 44.68 187.647 44.104C188.775 43.504 189.771 42.664 190.635 41.584L194.091 44.86ZM197.992 23.224H202.852V33.52H213.688V23.224H218.548V49H213.688V38.128H202.852V49H197.992V23.224Z" fill="white"/>
</svg>
